<svg width="398" height="96" viewBox="0 0 398 96" fill="none" xmlns="http://www.w3.org/2000/svg">
<path d="M75.175 16.0271L48.086 0.300747L49.7709 38.7525L75.175 16.0271Z" fill="#C44736"/>
<path d="M50.4604 54.1765L52.707 95.5661L88.3505 74.8713V23.6312L81.3946 19.4836L50.4604 54.1765Z" fill="#C44736"/>
<path d="M40.7415 0L0 23.6327V33.224L37.9765 63.9422L40.7415 0Z" fill="#C44736"/>
<path d="M0 74.8731V43.5501L37.242 80.5761L36.4211 96L0 74.8731Z" fill="#C44736"/>
<path d="M162.258 58.7518C159.85 63.3169 156.025 66.9592 151.37 69.1205C146.715 71.2818 141.486 71.843 136.485 70.7179C131.484 69.5929 126.986 66.8437 123.681 62.8917C120.375 58.9398 118.445 54.003 118.186 48.838C117.927 43.6729 119.353 38.5646 122.246 34.2958C125.138 30.027 129.338 26.8332 134.201 25.2039C139.064 23.5746 144.322 23.5997 149.17 25.2752C154.018 26.9508 158.187 30.1844 161.04 34.4806L154.709 38.7624C152.784 35.8639 149.971 33.6823 146.701 32.5518C143.43 31.4214 139.883 31.4045 136.602 32.5037C133.321 33.603 130.487 35.7577 128.536 38.6377C126.584 41.5178 125.622 44.9642 125.797 48.4489C125.972 51.9336 127.274 55.2643 129.504 57.9306C131.734 60.5968 134.768 62.4516 138.143 63.2107C141.517 63.9697 145.045 63.5911 148.185 62.1329C151.326 60.6747 153.906 58.2174 155.531 55.1375L162.258 58.7518Z" fill="#C44736"/>
<path d="M154.825 66.7395C154.198 67.2011 153.216 67.7676 151.879 68.439C150.541 69.1104 148.953 69.6979 147.115 70.2015C145.318 70.6631 143.312 70.8729 141.097 70.8309C137.546 70.789 134.349 70.1595 131.507 68.9426C128.666 67.6837 126.263 66.0052 124.299 63.907C122.335 61.7669 120.81 59.333 119.723 56.6054C118.679 53.8358 118.156 50.8984 118.156 47.7931C118.156 44.3102 118.699 41.121 119.786 38.2255C120.872 35.3301 122.419 32.8333 124.424 30.7351C126.43 28.595 128.812 26.9374 131.57 25.7625C134.328 24.5875 137.337 24 140.596 24C143.479 24 146.049 24.3987 148.306 25.196C150.604 25.9513 152.526 26.8115 154.072 27.7767L151.189 34.7006C150.019 33.8614 148.556 33.0431 146.801 32.2458C145.046 31.4485 143.061 31.0498 140.847 31.0498C138.841 31.0498 136.919 31.4695 135.08 32.3087C133.241 33.106 131.633 34.26 130.254 35.7707C128.875 37.2394 127.767 38.9599 126.932 40.9322C126.138 42.9044 125.741 45.0445 125.741 47.3525C125.741 49.7444 126.096 51.9475 126.806 53.9617C127.558 55.934 128.603 57.6545 129.94 59.1232C131.319 60.5919 132.949 61.7459 134.829 62.5852C136.752 63.3825 138.883 63.7811 141.223 63.7811C143.605 63.7811 145.673 63.4244 147.428 62.7111C149.225 61.9557 150.667 61.1165 151.753 60.1933L154.825 66.7395Z" fill="#C44736"/>
<path d="M166.183 43.7017H173.204V70.3274H166.183V43.7017ZM165.87 34.1971C165.87 33.106 166.288 32.2038 167.124 31.4904C168.001 30.7771 168.941 30.4204 169.944 30.4204C170.947 30.4204 171.846 30.7771 172.64 31.4904C173.475 32.2038 173.893 33.106 173.893 34.1971C173.893 35.2881 173.475 36.1903 172.64 36.9037C171.846 37.5751 170.947 37.9108 169.944 37.9108C168.941 37.9108 168.001 37.5541 167.124 36.8407C166.288 36.1274 165.87 35.2461 165.87 34.1971Z" fill="#C44736"/>
<path d="M186.03 43.7017L186.657 51.2551L186.406 50.185C187.158 48.5904 188.182 47.2266 189.477 46.0936C190.814 44.9187 192.172 44.0374 193.551 43.4499C194.93 42.8205 196.059 42.5058 196.936 42.5058L196.623 49.5556C194.617 49.3877 192.862 49.7654 191.358 50.6886C189.895 51.5698 188.746 52.7448 187.91 54.2135C187.116 55.6822 186.719 57.2349 186.719 58.8714V70.3274H179.699V43.7017H186.03Z" fill="#C44736"/>
<path d="M221.764 67.8725C220.594 68.8377 219.152 69.614 217.439 70.2015C215.767 70.747 214.075 71.0198 212.362 71.0198C209.436 71.0198 206.867 70.4533 204.652 69.3203C202.437 68.1453 200.703 66.5297 199.449 64.4735C198.237 62.3753 197.632 59.8785 197.632 56.9831C197.632 54.0876 198.279 51.5908 199.575 49.4926C200.912 47.3945 202.646 45.7999 204.777 44.7088C206.95 43.5758 209.248 43.0093 211.672 43.0093C213.887 43.0093 215.851 43.3241 217.564 43.9535C219.277 44.541 220.761 45.3593 222.014 46.4083L218.504 51.0033C217.836 50.4578 216.958 49.9542 215.872 49.4926C214.827 48.9891 213.636 48.7373 212.299 48.7373C210.878 48.7373 209.583 49.094 208.413 49.8074C207.284 50.5207 206.365 51.5069 205.655 52.7658C204.986 53.9827 204.652 55.3885 204.652 56.9831C204.652 58.4937 205.007 59.8785 205.717 61.1374C206.428 62.3963 207.41 63.4034 208.663 64.1588C209.917 64.8722 211.359 65.2288 212.988 65.2288C214.033 65.2288 214.994 65.082 215.872 64.7882C216.791 64.4525 217.585 64.0119 218.254 63.4664L221.764 67.8725Z" fill="#C44736"/>
<path d="M223.634 56.7313C223.634 54.0457 224.261 51.6328 225.515 49.4926C226.768 47.3106 228.523 45.611 230.78 44.3941C233.078 43.1352 235.669 42.5058 238.552 42.5058C241.519 42.5058 244.089 43.1352 246.262 44.3941C248.477 45.611 250.19 47.3106 251.402 49.4926C252.614 51.6328 253.22 54.0457 253.22 56.7313C253.22 59.4169 252.614 61.8508 251.402 64.0329C250.19 66.173 248.477 67.8725 246.262 69.1314C244.089 70.3903 241.498 71.0198 238.49 71.0198C235.648 71.0198 233.099 70.4533 230.843 69.3203C228.586 68.1453 226.81 66.4877 225.515 64.3476C224.261 62.2075 223.634 59.6687 223.634 56.7313ZM230.717 56.7942C230.717 58.3469 231.052 59.7736 231.72 61.0745C232.389 62.3334 233.308 63.3405 234.478 64.0958C235.648 64.8512 236.944 65.2288 238.364 65.2288C239.91 65.2288 241.248 64.8512 242.376 64.0958C243.546 63.3405 244.444 62.3334 245.071 61.0745C245.74 59.7736 246.074 58.3469 246.074 56.7942C246.074 55.1996 245.74 53.7729 245.071 52.514C244.444 51.2131 243.546 50.185 242.376 49.4297C241.248 48.6744 239.91 48.2967 238.364 48.2967C236.902 48.2967 235.585 48.6953 234.415 49.4926C233.287 50.248 232.389 51.2551 231.72 52.514C231.052 53.7729 230.717 55.1996 230.717 56.7942Z" fill="#C44736"/>
<path d="M263.793 43.7017L264.42 49.4297L264.169 48.6744C265.089 46.828 266.447 45.3593 268.243 44.2682C270.082 43.1352 272.255 42.5687 274.762 42.5687C277.27 42.5687 279.338 43.3031 280.968 44.7718C282.597 46.2405 283.433 48.1708 283.475 50.5627V70.3274H276.455V53.0805C276.413 51.7377 276.037 50.6676 275.326 49.8703C274.616 49.031 273.488 48.5904 271.942 48.5485C270.521 48.5485 269.246 48.9891 268.118 49.8703C266.99 50.7096 266.091 51.8845 265.423 53.3952C264.796 54.8639 264.483 56.5634 264.483 58.4937V70.3274H257.462V43.7017H263.793Z" fill="#C44736"/>
<path d="M287.821 56.7313C287.821 54.0457 288.448 51.6328 289.701 49.4926C290.955 47.3106 292.71 45.611 294.967 44.3941C297.265 43.1352 299.856 42.5058 302.739 42.5058C305.706 42.5058 308.276 43.1352 310.449 44.3941C312.663 45.611 314.377 47.3106 315.589 49.4926C316.8 51.6328 317.406 54.0457 317.406 56.7313C317.406 59.4169 316.8 61.8508 315.589 64.0329C314.377 66.173 312.663 67.8725 310.449 69.1314C308.276 70.3903 305.685 71.0198 302.676 71.0198C299.835 71.0198 297.286 70.4533 295.029 69.3203C292.773 68.1453 290.997 66.4877 289.701 64.3476C288.448 62.2075 287.821 59.6687 287.821 56.7313ZM294.904 56.7942C294.904 58.3469 295.238 59.7736 295.907 61.0745C296.575 62.3334 297.495 63.3405 298.665 64.0958C299.835 64.8512 301.13 65.2288 302.551 65.2288C304.097 65.2288 305.434 64.8512 306.563 64.0958C307.733 63.3405 308.631 62.3334 309.258 61.0745C309.926 59.7736 310.261 58.3469 310.261 56.7942C310.261 55.1996 309.926 53.7729 309.258 52.514C308.631 51.2131 307.733 50.185 306.563 49.4297C305.434 48.6744 304.097 48.2967 302.551 48.2967C301.088 48.2967 299.772 48.6953 298.602 49.4926C297.474 50.248 296.575 51.2551 295.907 52.514C295.238 53.7729 294.904 55.1996 294.904 56.7942Z" fill="#C44736"/>
<path d="M327.98 43.7017L328.607 49.115L328.356 48.6744C329.359 46.7441 330.717 45.2334 332.43 44.1423C334.185 43.0513 336.212 42.5058 338.51 42.5058C339.973 42.5058 341.268 42.7366 342.396 43.1982C343.525 43.6598 344.465 44.3102 345.217 45.1495C346.011 45.9887 346.533 47.0378 346.784 48.2967L346.408 48.4226C347.494 46.6182 348.894 45.1914 350.608 44.1423C352.321 43.0513 354.139 42.5058 356.061 42.5058C358.652 42.5058 360.72 43.2611 362.266 44.7718C363.812 46.2405 364.606 48.1498 364.648 50.4998V70.3274H357.691V53.2693C357.649 51.9685 357.377 50.8984 356.876 50.0591C356.374 49.1779 355.434 48.6953 354.055 48.6114C352.551 48.6114 351.255 49.094 350.169 50.0591C349.082 50.9823 348.226 52.1993 347.599 53.7099C347.014 55.1787 346.721 56.7523 346.721 58.4308V70.3274H339.638V53.2693C339.597 51.9685 339.304 50.8984 338.761 50.0591C338.218 49.1779 337.257 48.6953 335.878 48.6114C334.415 48.6114 333.141 49.094 332.054 50.0591C330.968 50.9823 330.132 52.1993 329.547 53.7099C328.962 55.1787 328.669 56.7313 328.669 58.3679V70.3274H321.649V43.7017H327.98Z" fill="#C44736"/>
<path d="M373.29 83.1052L390.903 43.7017H397.296L380.185 83.1052H373.29ZM380.122 70.5162L367.21 43.7017H375.107L385.512 66.9284L380.122 70.5162Z" fill="#C44736"/>
</svg>
