<svg width="216" height="52" viewBox="0 0 216 52" fill="none" xmlns="http://www.w3.org/2000/svg">
<path d="M40.7197 8.68129L26.0465 0.162924L26.9592 20.9908L40.7197 8.68129Z" fill="white"/>
<path d="M27.3327 29.3454L28.5496 51.7646L47.8564 40.555V12.8001L44.0886 10.5535L27.3327 29.3454Z" fill="white"/>
<path d="M22.0682 0L0 12.8009V17.9962L20.5704 34.6351L22.0682 0Z" fill="white"/>
<path d="M0 40.556V23.5895L20.1726 43.6451L19.728 51.9996L0 40.556Z" fill="white"/>
<path d="M87.888 31.8238C86.5838 34.2965 84.5122 36.2694 81.9907 37.4401C79.4692 38.6108 76.6369 38.9148 73.9279 38.3054C71.2189 37.696 68.7826 36.2069 66.9923 34.0662C65.2021 31.9256 64.1566 29.2515 64.0162 26.4538C63.8759 23.6561 64.6482 20.8891 66.215 18.5769C67.7819 16.2646 70.0566 14.5347 72.6908 13.6521C75.3249 12.7696 78.1731 12.7832 80.7989 13.6908C83.4247 14.5983 85.6832 16.3499 87.2283 18.677L83.7993 20.9963C82.7568 19.4263 81.2331 18.2445 79.4616 17.6322C77.69 17.0199 75.7684 17.0107 73.9912 17.6062C72.2141 18.2016 70.6793 19.3687 69.6223 20.9287C68.5652 22.4887 68.0441 24.3555 68.1388 26.2431C68.2335 28.1306 68.9388 29.9347 70.1467 31.3789C71.3545 32.8231 72.9982 33.8278 74.8259 34.239C76.6536 34.6501 78.5644 34.445 80.2656 33.6552C81.9668 32.8653 83.3644 31.5343 84.2444 29.866L87.888 31.8238Z" fill="white"/>
<path d="M83.8619 36.1504C83.5223 36.4004 82.9904 36.7073 82.2661 37.071C81.5418 37.4346 80.6817 37.7529 79.6858 38.0256C78.7125 38.2757 77.626 38.3893 76.4264 38.3666C74.5025 38.3438 72.7709 38.0029 71.2318 37.3437C69.6926 36.6618 68.3911 35.7526 67.3273 34.6161C66.2635 33.4569 65.4373 32.1386 64.8488 30.6611C64.2829 29.161 64 27.5699 64 25.8879C64 24.0013 64.2943 22.2738 64.8828 20.7054C65.4713 19.1371 66.3087 17.7846 67.3952 16.6482C68.4817 15.4889 69.7718 14.5911 71.2657 13.9547C72.7596 13.3182 74.3893 13 76.1548 13C77.7166 13 79.1086 13.2159 80.3309 13.6478C81.5758 14.0569 82.617 14.5229 83.4544 15.0457L81.8927 18.7961C81.2589 18.3415 80.4667 17.8983 79.516 17.4664C78.5654 17.0346 77.4902 16.8186 76.2906 16.8186C75.2041 16.8186 74.1629 17.0459 73.167 17.5005C72.1711 17.9324 71.2997 18.5575 70.5527 19.3757C69.8058 20.1713 69.206 21.1032 68.7533 22.1715C68.3232 23.2398 68.1082 24.399 68.1082 25.6492C68.1082 26.9448 68.3006 28.1381 68.6854 29.2292C69.0928 30.2975 69.6587 31.2294 70.383 32.0249C71.1299 32.8205 72.0127 33.4456 73.0312 33.9001C74.0724 34.332 75.2268 34.548 76.4943 34.548C77.7845 34.548 78.9049 34.3547 79.8555 33.9683C80.8288 33.5592 81.6097 33.1046 82.1982 32.6045L83.8619 36.1504Z" fill="white"/>
<path d="M90.0145 23.6717H93.8171V38.0938H90.0145V23.6717ZM89.8448 18.5234C89.8448 17.9324 90.0711 17.4437 90.5238 17.0573C90.9991 16.6709 91.5084 16.4777 92.0516 16.4777C92.5949 16.4777 93.0815 16.6709 93.5116 17.0573C93.9642 17.4437 94.1906 17.9324 94.1906 18.5234C94.1906 19.1143 93.9642 19.603 93.5116 19.9894C93.0815 20.3531 92.5949 20.535 92.0516 20.535C91.5084 20.535 90.9991 20.3418 90.5238 19.9554C90.0711 19.5689 89.8448 19.0916 89.8448 18.5234Z" fill="white"/>
<path d="M100.765 23.6717L101.104 27.7631L100.968 27.1835C101.376 26.3197 101.93 25.581 102.632 24.9673C103.356 24.3309 104.092 23.8535 104.839 23.5353C105.586 23.1944 106.197 23.0239 106.672 23.0239L106.502 26.8425C105.416 26.7516 104.465 26.9562 103.65 27.4562C102.858 27.9335 102.236 28.57 101.783 29.3655C101.353 30.1611 101.138 31.0021 101.138 31.8886V38.0938H97.3354V23.6717H100.765Z" fill="white"/>
<path d="M120.12 36.7641C119.487 37.2869 118.706 37.7074 117.778 38.0256C116.872 38.3211 115.956 38.4689 115.028 38.4689C113.443 38.4689 112.051 38.162 110.851 37.5483C109.652 36.9119 108.712 36.0368 108.033 34.923C107.377 33.7865 107.049 32.4341 107.049 30.8657C107.049 29.2973 107.4 27.9449 108.101 26.8084C108.826 25.6719 109.765 24.8082 110.919 24.2172C112.096 23.6035 113.341 23.2966 114.654 23.2966C115.854 23.2966 116.917 23.4671 117.846 23.8081C118.774 24.1263 119.577 24.5695 120.256 25.1378L118.355 27.6267C117.993 27.3312 117.517 27.0584 116.929 26.8084C116.363 26.5357 115.718 26.3993 114.994 26.3993C114.224 26.3993 113.522 26.5925 112.889 26.9789C112.277 27.3653 111.779 27.8995 111.395 28.5814C111.032 29.2405 110.851 30.002 110.851 30.8657C110.851 31.684 111.044 32.4341 111.429 33.116C111.813 33.7979 112.345 34.3434 113.024 34.7525C113.703 35.1389 114.484 35.3321 115.367 35.3321C115.933 35.3321 116.453 35.2526 116.929 35.0935C117.427 34.9116 117.857 34.673 118.219 34.3775L120.12 36.7641Z" fill="white"/>
<path d="M121.134 30.7293C121.134 29.2746 121.473 27.9676 122.152 26.8084C122.831 25.6265 123.782 24.7059 125.004 24.0467C126.249 23.3648 127.652 23.0239 129.214 23.0239C130.821 23.0239 132.213 23.3648 133.39 24.0467C134.59 24.7059 135.518 25.6265 136.174 26.8084C136.831 27.9676 137.159 29.2746 137.159 30.7293C137.159 32.184 136.831 33.5024 136.174 34.6843C135.518 35.8436 134.59 36.7641 133.39 37.446C132.213 38.1279 130.81 38.4689 129.18 38.4689C127.641 38.4689 126.26 38.162 125.038 37.5483C123.816 36.9119 122.854 36.014 122.152 34.8548C121.473 33.6956 121.134 32.3204 121.134 30.7293ZM124.97 30.7634C124.97 31.6044 125.151 32.3772 125.513 33.0819C125.875 33.7638 126.373 34.3093 127.007 34.7184C127.641 35.1276 128.343 35.3321 129.112 35.3321C129.95 35.3321 130.674 35.1276 131.285 34.7184C131.919 34.3093 132.406 33.7638 132.745 33.0819C133.107 32.3772 133.288 31.6044 133.288 30.7634C133.288 29.8997 133.107 29.1269 132.745 28.445C132.406 27.7403 131.919 27.1835 131.285 26.7743C130.674 26.3652 129.95 26.1606 129.112 26.1606C128.32 26.1606 127.607 26.3766 126.973 26.8084C126.362 27.2176 125.875 27.7631 125.513 28.445C125.151 29.1269 124.97 29.8997 124.97 30.7634Z" fill="white"/>
<path d="M142.886 23.6717L143.226 26.7743L143.09 26.3652C143.588 25.3651 144.323 24.5695 145.297 23.9785C146.293 23.3648 147.47 23.058 148.828 23.058C150.186 23.058 151.306 23.4558 152.189 24.2513C153.072 25.0469 153.524 26.0924 153.547 27.388V38.0938H149.744V28.7518C149.722 28.0245 149.518 27.4449 149.133 27.013C148.748 26.5584 148.137 26.3197 147.3 26.297C146.53 26.297 145.84 26.5357 145.229 27.013C144.618 27.4676 144.131 28.104 143.769 28.9223C143.429 29.7178 143.26 30.6384 143.26 31.684V38.0938H139.457V23.6717H142.886Z" fill="white"/>
<path d="M155.901 30.7293C155.901 29.2746 156.241 27.9676 156.92 26.8084C157.599 25.6265 158.549 24.7059 159.772 24.0467C161.016 23.3648 162.42 23.0239 163.982 23.0239C165.589 23.0239 166.981 23.3648 168.158 24.0467C169.357 24.7059 170.285 25.6265 170.942 26.8084C171.598 27.9676 171.926 29.2746 171.926 30.7293C171.926 32.184 171.598 33.5024 170.942 34.6843C170.285 35.8436 169.357 36.7641 168.158 37.446C166.981 38.1279 165.577 38.4689 163.948 38.4689C162.409 38.4689 161.028 38.162 159.806 37.5483C158.583 36.9119 157.621 36.014 156.92 34.8548C156.241 33.6956 155.901 32.3204 155.901 30.7293ZM159.738 30.7634C159.738 31.6044 159.919 32.3772 160.281 33.0819C160.643 33.7638 161.141 34.3093 161.775 34.7184C162.409 35.1276 163.11 35.3321 163.88 35.3321C164.717 35.3321 165.442 35.1276 166.053 34.7184C166.686 34.3093 167.173 33.7638 167.513 33.0819C167.875 32.3772 168.056 31.6044 168.056 30.7634C168.056 29.8997 167.875 29.1269 167.513 28.445C167.173 27.7403 166.686 27.1835 166.053 26.7743C165.442 26.3652 164.717 26.1606 163.88 26.1606C163.088 26.1606 162.375 26.3766 161.741 26.8084C161.13 27.2176 160.643 27.7631 160.281 28.445C159.919 29.1269 159.738 29.8997 159.738 30.7634Z" fill="white"/>
<path d="M177.654 23.6717L177.993 26.6038L177.857 26.3652C178.401 25.3196 179.136 24.5013 180.064 23.9104C181.015 23.3194 182.113 23.0239 183.358 23.0239C184.15 23.0239 184.851 23.1489 185.463 23.3989C186.074 23.649 186.583 24.0013 186.99 24.4559C187.42 24.9105 187.703 25.4787 187.839 26.1606L187.635 26.2288C188.224 25.2514 188.982 24.4786 189.91 23.9104C190.838 23.3194 191.823 23.0239 192.864 23.0239C194.267 23.0239 195.388 23.433 196.225 24.2513C197.063 25.0469 197.493 26.0811 197.515 27.3539V38.0938H193.747V28.8541C193.724 28.1495 193.577 27.5699 193.305 27.1153C193.034 26.6379 192.525 26.3765 191.778 26.3311C190.963 26.3311 190.261 26.5925 189.673 27.1153C189.084 27.6153 188.62 28.2745 188.281 29.0928C187.964 29.8883 187.805 30.7407 187.805 31.6499V38.0938H183.969V28.8541C183.946 28.1495 183.788 27.5699 183.493 27.1153C183.199 26.6379 182.678 26.3765 181.932 26.3311C181.139 26.3311 180.449 26.5925 179.86 27.1153C179.272 27.6153 178.819 28.2745 178.502 29.0928C178.186 29.8883 178.027 30.7293 178.027 31.6158V38.0938H174.224V23.6717H177.654Z" fill="white"/>
<path d="M202.196 45.0151L211.737 23.6717H215.2L205.931 45.0151H202.196ZM205.897 38.1961L198.903 23.6717H203.181L208.817 36.2527L205.897 38.1961Z" fill="white"/>
</svg>
