<svg width="1440" height="517" viewBox="0 0 1440 517" fill="none" xmlns="http://www.w3.org/2000/svg">
<g clip-path="url(#clip0_6096_1425)">
<rect width="1440" height="517" fill="#241C17"/>
<path d="M-77.0022 257.485C-7.07789 240.566 63.5123 223.176 134.103 206.257C166.734 198.267 200.031 190.278 234.66 186.988C270.621 183.698 307.248 186.048 343.209 187.928C386.496 190.748 430.448 193.098 471.071 204.377C495.711 210.957 519.019 220.356 543.659 226.936C632.896 250.435 733.453 233.986 822.69 210.017C911.927 186.518 1000.5 155.499 1095.73 151.739C1153.67 149.389 1210.94 156.439 1268.87 158.319C1326.81 160.199 1388.08 155.499 1435.36 132C1440.02 258.425 1448.68 385.32 1460 511.275C1281.53 529.604 1103.05 548.403 923.914 557.803C712.143 569.082 499.041 567.202 289.934 594.461C209.354 604.801 129.441 619.84 47.5296 626.89C32.2129 628.3 16.2302 629.24 2.91129 624.07C-19.0649 615.61 -25.0584 595.401 -27.0563 577.542C-39.7092 470.856 -21.0627 358.061 -79 258.895" fill="#452C19" fill-opacity="0.5"/>
<g opacity="0.6">
<path d="M437.979 72.2365C435.425 70.6869 432.361 70.6869 429.297 71.72C427.765 72.2365 426.744 73.2696 425.722 74.8192C425.212 75.8523 424.701 77.4019 425.212 78.435C426.233 81.0177 428.786 81.5342 430.829 80.5012C431.85 81.0177 432.361 81.0177 433.382 80.5012C434.915 79.9846 436.447 79.4681 437.468 78.435C438.489 77.4019 439 76.3688 439 74.8192C439 74.3027 439 72.7531 437.979 72.2365Z" fill="#543210"/>
<path d="M394.926 163C390.173 163 385.895 173 392.074 173C396.827 173 401.105 163 394.926 163Z" fill="#543210"/>
<path d="M1367.69 361.104C1366.86 351.968 1359.42 347.815 1351.16 343.663C1344.55 341.171 1333.8 346.154 1329.67 351.138C1322.23 360.273 1313.97 376.054 1326.36 385.189C1327.19 386.02 1328.02 386.851 1329.67 386.851C1332.15 392.664 1338.76 395.156 1345.37 393.495C1353.64 391.834 1359.42 386.851 1361.9 379.376V378.545C1362.73 377.715 1362.73 376.884 1363.56 376.054C1364.38 375.223 1365.21 373.562 1365.21 372.731C1367.69 369.409 1368.52 365.257 1367.69 361.104Z" fill="#543210"/>
<path d="M323.357 204C317.521 204 312.215 214 319.643 214C325.479 213.5 330.785 204 323.357 204Z" fill="#543210"/>
<path d="M341.357 372.155C338.714 370 336.071 370 332.9 370H332.372C330.786 370 329.729 370 328.672 370.539C326.557 371.078 323.914 372.694 322.329 374.311C319.686 377.005 317.572 381.855 320.215 385.627C320.743 386.705 322.329 387.783 323.386 388.322C325.5 391.555 330.257 391.555 333.429 389.938C335.543 388.86 337.657 387.244 339.243 385.088C341.357 383.472 343.471 381.316 344 378.622C344 375.928 343.471 373.233 341.357 372.155Z" fill="#543210"/>
<path d="M432 458.594C431.216 457.75 431.216 456.906 430.432 456.062C429.648 455.219 428.865 454.375 428.081 453.531C427.297 452.687 426.513 452.687 425.729 451.844L422.594 451C421.026 451 419.458 451 417.106 451.844C413.971 452.687 411.619 454.375 409.268 456.906C406.916 459.437 406.132 461.969 405.348 465.344C405.348 467.031 404.565 467.875 405.348 470.406C405.348 470.406 405.348 470.406 405.348 471.25C405.348 472.094 406.132 472.937 406.916 474.625C409.268 478 412.403 478 415.539 478C418.674 478 421.026 476.312 423.377 474.625C425.729 472.937 427.297 472.094 428.865 469.562C430.432 467.031 432 464.5 432 461.125C432 460.281 432 459.438 432 458.594Z" fill="#543210"/>
<path d="M515.487 365.942C515.487 365.422 514.982 364.902 514.477 364.382C513.973 363.862 512.964 363.862 512.459 363.862C511.45 362.822 509.432 362.822 507.919 363.342C506.91 363.862 505.901 364.382 505.396 364.902C504.387 365.422 503.378 366.462 503.378 368.023C502.874 369.583 502.874 370.103 503.378 371.664C503.378 373.224 504.892 374.264 506.405 374.785C508.423 375.305 510.441 374.785 512.459 374.264C513.468 373.744 513.973 373.224 514.477 372.704C514.982 372.184 515.487 371.664 515.991 371.144C516.496 370.103 517 369.063 517 368.023C515.991 366.983 515.991 366.462 515.487 365.942Z" fill="#241C17"/>
<path d="M636.254 198.52C634.698 193.304 630.548 189.131 625.36 187.045C615.503 183.916 606.165 188.088 600.458 195.912C596.308 198.52 593.714 203.214 593.196 208.43C592.158 216.254 595.271 225.643 602.015 230.337C613.428 238.161 626.916 227.208 632.623 217.298C635.735 212.082 638.329 205.301 636.254 198.52Z" fill="#543210"/>
<path d="M705.932 39.6336C705.932 37.5413 704.87 35.972 703.278 34.9258C702.747 34.4027 702.747 33.3565 702.216 32.8334C699.562 29.1718 694.785 28.6487 691.07 29.1718C685.762 30.218 681.516 33.8796 678.331 37.5413C675.146 41.2029 673.023 46.9569 677.8 50.6185C678.331 51.1416 678.331 51.1416 678.862 51.1416C684.7 57.9418 695.316 54.8033 700.093 49.0493C700.624 48.5262 700.624 48.5262 701.155 48.0031C703.809 46.4338 706.462 43.2953 705.932 39.6336Z" fill="#543210"/>
<path d="M803.574 195.221C800.931 194.433 797.976 195.852 796.266 197.901C796.11 198.059 796.11 198.059 795.955 198.216C794.089 199.162 793 201.369 793 203.419C793 207.202 796.11 209.41 799.687 208.937C803.574 208.306 807.151 204.522 806.995 200.424C806.995 198.216 805.751 195.852 803.574 195.221Z" fill="#543210"/>
<path d="M896.307 213C888.872 213 881.968 226 892.058 226C898.962 226 905.866 213 896.307 213Z" fill="#543210"/>
<path d="M177.975 41.5972C177.262 39.4389 175.478 38 172.98 38C163.704 38.7194 155.141 45.1943 151.93 53.8276C147.291 62.1011 147.291 71.8134 158.352 72.8926C172.623 74.6912 182.257 53.4679 177.975 41.5972Z" fill="#543210"/>
<path d="M143 170.709C143 169.2 142.471 168.194 140.884 167.69C140.884 167.69 140.884 167.69 140.354 167.69C140.354 165.678 139.296 164.168 137.709 163.162C135.063 161.149 130.831 162.156 128.185 163.162C122.365 165.678 117.603 171.716 121.307 177.25C121.836 177.754 121.836 178.257 122.365 178.257C122.894 178.76 122.894 179.766 123.423 180.269C124.481 182.282 125.01 183.288 127.127 183.792C129.243 184.295 131.889 183.792 133.476 183.288C136.651 181.779 140.884 178.257 140.354 174.232C142.471 172.722 143 171.716 143 170.709Z" fill="#543210"/>
<path d="M65.3492 318.119C66.0993 318.602 66.7736 318.653 67.5465 318.001C67.5465 318.001 67.5465 318.001 67.7209 317.73C68.7209 318.374 69.8196 318.315 70.8425 317.824C72.7141 317.114 73.6085 314.626 73.98 312.95C74.6474 309.166 73.216 304.798 69.2457 304.923C68.8214 305.033 68.5714 304.872 68.3971 305.143C67.9727 305.253 67.4727 304.931 67.0484 305.041C65.6997 304.939 65.0254 304.888 64.0782 305.81C63.1309 306.733 62.5094 308.248 62.2365 309.221C61.9407 311.329 62.2963 314.622 64.4707 315.638C64.5235 317.204 64.8492 317.797 65.3492 318.119Z" fill="#543210"/>
<path d="M989 481.394C989 480.879 989 479.849 989 479.334C989 478.304 988.492 477.274 987.476 476.759C986.968 476.244 986.46 475.728 985.952 475.728C984.937 475.213 983.921 474.698 982.905 475.213C981.889 475.213 981.381 475.213 980.365 475.213C978.841 475.728 977.317 476.244 975.794 477.274C973.762 478.819 971.73 480.364 970.714 482.425C969.19 485 968.683 488.091 969.19 490.666C969.698 491.181 969.698 491.696 970.206 492.211C970.714 493.241 971.73 493.756 972.746 494.272C974.27 494.787 976.302 495.302 977.825 494.787C979.349 494.272 980.873 493.757 982.397 492.726C983.413 492.211 984.429 491.181 984.937 490.151C985.952 489.121 986.46 488.091 986.46 487.06V486.545C986.968 486.03 987.476 485.515 987.476 484.485C988.492 483.455 989 482.425 989 481.394Z" fill="#241C17"/>
<path d="M980.658 74C980.137 72.5 979.616 71.5 978.574 71C977.532 70.5 975.969 70 974.406 70C973.364 70 971.801 70 970.759 70.5C969.717 71 968.154 71.5 967.112 72C965.549 73 964.507 74 963.465 75.5C961.902 77.5 961.381 81 962.944 83C962.944 83 962.944 83.5 963.465 83.5C963.986 84 964.507 84.5 965.028 85L966.591 85.5C967.112 85.5 967.633 85.5 968.675 86C970.238 86 970.759 86 971.801 85.5C973.364 85 973.364 85 974.927 84C975.448 83.5 975.969 83 976.49 83C977.011 83 977.011 82.5 977.532 82.5C978.053 82 978.574 81.5 979.095 80.5C979.616 80 980.137 79 980.137 78.5V78C981.179 76.5 981.179 75.5 980.658 74Z" fill="#543210"/>
<path d="M1299.41 253C1292.87 253 1286.34 264 1295.59 264C1302.13 264 1308.66 253 1299.41 253Z" fill="#241C17"/>
<path d="M718.288 438.756C716.766 436.598 713.722 434.439 710.678 433.72C709.156 433 706.873 433 705.351 433C703.068 433 701.546 433.72 699.263 433.72C695.459 434.439 691.654 435.878 688.61 438.756C687.088 440.195 685.566 441.634 684.044 443.793C682.522 445.951 681.761 448.829 681.761 450.988V451.707C681 453.146 681 454.585 681 456.024V456.744C681 457.463 681 458.183 681 458.902C681 456.744 681 456.743 681 459.621C681 461.06 681.761 461.78 682.522 463.219C684.044 465.377 686.327 466.817 689.371 467.536C698.503 469.695 708.395 463.939 713.722 458.183C719.049 453.146 724.376 445.951 718.288 438.756Z" fill="#543210"/>
<path d="M1236 170.442C1235.48 168.858 1234.97 168.33 1233.94 167.274C1233.42 166.747 1232.91 166.747 1231.88 166.219C1229.82 165.691 1227.24 166.219 1225.7 166.747C1223.12 167.274 1220.55 169.386 1219.52 172.026C1219 173.609 1219 174.665 1219 176.249C1219 176.777 1219 176.777 1219 177.305C1219 178.36 1219.52 178.888 1220.55 179.416C1221.06 179.944 1221.58 180.472 1222.09 180.472C1223.12 181 1223.64 181 1224.67 181C1224.67 181 1224.67 181 1225.18 181C1225.18 181 1225.18 181 1224.67 181C1225.7 181 1226.21 181 1227.24 181C1229.82 180.472 1232.39 178.888 1233.94 176.777C1234.45 175.721 1234.97 175.193 1235.48 174.137C1236 172.554 1236 171.498 1236 170.442Z" fill="#462C17"/>
<path d="M91.8268 463C85.5635 463 79.8223 474 88.1732 474C94.4365 474 100.178 463 91.8268 463Z" fill="#241C17"/>
<path d="M1395.76 42.9091C1395.76 42.3636 1396.3 41.2727 1395.76 40.7273C1395.76 40.1818 1395.22 39.0909 1394.68 38.5455C1394.15 38 1393.07 38 1392.53 38C1391.46 38 1389.84 38.5454 1388.77 39.0909C1387.15 40.1818 1385.54 41.8182 1385 43.4545C1385 44.5455 1385 45.0909 1385 45.6364C1385 46.1818 1385.54 46.1818 1385.54 46.7273C1386.08 47.2727 1386.61 47.2727 1387.15 47.8182C1387.15 47.8182 1387.15 47.8182 1387.69 48.3636C1388.23 48.9091 1388.23 48.9091 1388.77 49.4546C1389.3 49.4546 1389.84 50 1390.38 50C1391.46 50 1392.53 49.4546 1393.07 49.4546C1394.68 48.3636 1396.3 46.7273 1395.76 44.5455C1395.76 43.4545 1395.76 43.4545 1395.76 42.9091Z" fill="#543210"/>
<path d="M479.311 221C466.478 221 454.561 242 471.061 242C484.811 242 496.728 221 479.311 221Z" fill="#241C17"/>
<path d="M1272.8 490C1254.37 490 1235.93 522 1261.74 522C1280.18 522 1297.39 490 1272.8 490Z" fill="#241C17"/>
</g>
</g>
<defs>
<clipPath id="clip0_6096_1425">
<rect width="1440" height="517" fill="white"/>
</clipPath>
</defs>
</svg>
