<svg width="74" height="86" viewBox="0 0 74 86" fill="none" xmlns="http://www.w3.org/2000/svg">
<path d="M66.44 36.472L62.344 35.96C61.832 33.784 60.936 31.864 59.912 29.944L62.472 26.744C63.368 25.592 63.368 23.928 62.216 22.904L57.352 18.04C56.328 17.016 54.664 16.888 53.512 17.784L50.44 20.216C48.392 19.064 46.344 18.168 44.04 17.528L43.528 13.56C43.4 12.152 42.12 11 40.584 11H33.672C32.136 11 30.984 12.152 30.728 13.56L30.216 17.528C27.912 18.168 25.736 19.064 23.688 20.344L20.488 17.784C19.336 16.888 17.672 17.016 16.648 18.04L11.784 22.904C10.76 23.928 10.632 25.592 11.528 26.744L14.216 30.2C13.192 32.12 12.296 34.168 11.784 36.344L7.56 36.728C6.024 36.856 5 38.136 5 39.672V46.584C5 48.12 6.152 49.272 7.56 49.528L12.04 50.04C12.552 51.96 13.448 53.88 14.344 55.672L11.528 59.256C10.632 60.408 10.76 62.072 11.784 63.096L16.648 67.96C17.672 68.984 19.336 69.112 20.488 68.216L24.072 65.4C25.864 66.424 27.912 67.32 29.832 67.832L30.344 72.44C30.472 73.976 31.752 75 33.288 75H40.2C41.736 75 42.888 73.848 43.144 72.44L43.656 68.088C45.832 67.576 47.88 66.68 49.928 65.528L53.384 68.216C54.536 69.112 56.2 68.984 57.224 67.96L62.088 63.096C63.112 62.072 63.24 60.408 62.344 59.256L59.784 55.8C60.936 53.88 61.832 51.832 62.344 49.656L66.44 49.144C67.976 49.016 69 47.736 69 46.2V39.288C69 37.88 67.848 36.6 66.44 36.472ZM37 54.136C31.112 54.136 26.376 49.4 26.376 43.512C26.376 37.624 31.112 32.888 37 32.888C42.888 32.888 47.624 37.624 47.624 43.512C47.624 49.4 42.888 54.136 37 54.136Z" fill="#241C17"/>
</svg>
