<svg width="74" height="86" viewBox="0 0 74 86" fill="none" xmlns="http://www.w3.org/2000/svg">
<path fill-rule="evenodd" clip-rule="evenodd" d="M14.4342 50.6818H49.7728C50.4989 50.6818 50.983 51.2777 50.983 51.8736V56.6408C50.983 57.3558 50.3779 57.8326 49.7728 57.8326H14.4342C13.708 57.8326 13.224 57.2367 13.224 56.6408V51.8736C13.224 51.2777 13.8291 50.6818 14.4342 50.6818ZM48.1995 57.9517C48.1995 58.0709 48.1995 58.3093 48.1995 58.5476L45.7791 75.5904C45.416 77.974 43.7217 80 41.3012 80H22.9058C20.4853 80 18.791 77.974 18.4279 75.5904L16.0075 58.5476C16.0075 58.3093 16.0075 58.1901 16.0075 57.9517H48.1995ZM19.1541 50.6818C18.912 49.8475 19.3961 49.1325 20.2433 48.5365C20.2433 48.5365 18.0649 48.7749 17.3387 47.7023C16.7336 46.7488 17.5808 44.4844 17.3387 43.7694C17.2177 43.2926 17.4598 42.9351 17.8228 42.8159C18.1859 42.6968 18.549 42.8159 18.912 43.1735C19.2751 43.6502 18.0649 46.153 18.549 46.868C19.2751 48.0598 21.5745 47.5831 21.6955 47.4639C23.2688 46.3913 25.2052 45.557 26.0524 44.7228C27.5046 43.1734 30.2882 42.22 35.4921 42.22C42.9955 42.3392 47.3524 41.0282 49.1677 39.2405C49.7728 38.6446 50.0149 38.0487 50.0149 37.4528C50.0149 36.8569 49.6518 36.1419 49.0467 35.4268C46.9893 33.1624 42.1484 31.3747 35.6132 31.3747C27.0205 31.4938 21.9376 29.7061 19.6382 27.4417C18.4279 26.2499 17.9438 24.939 18.0649 23.628C18.0649 23.5088 18.0649 23.3896 18.0649 23.2704C18.0649 23.2704 17.7018 23.0321 17.3387 22.7937C17.0967 22.6745 16.9757 21.9595 16.9757 21.9595C16.9757 21.9595 17.0967 22.5553 17.3387 22.6745C17.7018 22.7937 18.0649 22.9129 18.0649 22.9129C18.1859 21.8403 18.912 20.8868 19.8802 19.9334C22.5427 17.3115 28.1097 15.2854 35.4921 15.6429C40.091 15.6429 41.7853 13.1402 43.3586 10.9949C44.6899 9.20723 45.7791 7.53872 48.0785 7.06201C48.8046 6.82365 49.5308 7.30035 49.7728 8.01543C49.8938 8.73051 49.5308 9.44558 48.8046 9.68394C47.5944 10.0415 46.7472 11.2333 45.658 12.5442C43.7217 15.2854 41.5433 18.2649 35.6132 18.3841H35.4921C28.8359 18.1457 23.995 19.6951 21.8166 21.9595C21.0904 22.6746 20.7274 23.2704 20.7274 23.9855C20.7274 24.5814 20.9694 25.1773 21.5745 25.7732C23.3899 27.5609 27.8677 28.9911 35.6132 28.8719C42.9955 28.8719 48.5626 31.1363 51.1041 33.8775C52.0722 34.8309 52.4353 35.3076 52.6774 36.3802C52.6774 36.3802 53.5245 36.4994 54.2506 36.261C54.6137 36.1419 54.6137 34.8309 54.8558 34.7117L55.4609 34.9501C55.7029 35.3076 55.4609 36.8569 54.6137 37.0953C53.7666 37.3336 52.7984 37.4528 52.7984 37.4528V37.572C52.9194 38.883 52.3143 40.194 51.2251 41.3858C48.9257 43.6502 43.9637 45.3187 35.4921 45.0803C31.2563 45.0803 29.0779 45.6762 28.1097 46.7489C27.2626 47.5831 31.2563 49.2516 31.6194 50.801H19.1541V50.6818ZM62.8433 31.2555C63.4484 30.4212 62.2381 33.8774 60.3018 34.9501C58.3654 36.0227 56.308 36.261 55.8239 35.3076C55.3399 34.3541 55.8239 32.3281 57.7603 31.2555C59.5756 30.0637 62.2381 32.2089 62.8433 31.2555ZM53.8876 26.3691C53.4035 25.4157 55.8239 28.1568 55.8239 30.4212C55.8239 32.6856 54.9768 34.4734 53.8876 34.4734C52.7984 34.4734 51.2251 33.0432 51.2251 30.7788C51.2251 28.6335 54.3717 27.3225 53.8876 26.3691ZM22.6637 35.4268C22.7847 34.3542 23.5109 37.9296 22.3007 39.8364C21.2115 41.7433 19.5171 42.9351 18.549 42.3392C17.5808 41.7433 16.9757 39.7172 18.0649 37.8104C19.2751 36.0227 22.5427 36.4994 22.6637 35.4268ZM12.3768 35.546C11.4086 34.9501 15.0393 36.1419 16.1285 38.0487C17.2177 39.9556 17.4598 41.9817 16.4916 42.4584C15.5234 43.0543 13.466 42.5775 12.3768 40.5515C11.1666 38.7638 13.345 36.1419 12.3768 35.546Z" fill="#241C17"/>
</svg>
