<svg width="137" height="160" viewBox="0 0 137 160" fill="none" xmlns="http://www.w3.org/2000/svg">
<g id="Frame" clip-path="url(#clip0_6096_1415)">
<g id="Group">
<path id="Vector" d="M59.3231 72.4176C59.3231 72.4176 54.6445 72.7679 52.7251 66.2618C49.1261 54.1004 45.4072 54.0504 44.0276 53.4498C42.1681 52.599 41.1484 54.701 41.1484 54.701C41.1484 54.701 49.606 52.7492 50.5057 62.8086C51.3455 72.4176 53.8647 73.3685 56.1441 74.5196C57.7636 75.3203 59.1432 75.5706 59.1432 75.5706L59.3231 72.4176Z" fill="#63823D"/>
<path id="Vector_2" d="M9.35734 56.4025C9.35734 56.4025 19.0745 44.6415 33.2304 46.3431C40.4883 47.244 41.448 52.3988 43.0075 52.8993C52.3048 56.0022 51.0452 61.5073 47.8061 64.9606C41.8678 71.3666 27.592 66.8123 10.1371 76.0209C2.2794 80.1248 0.0600537 82.9274 0.0600537 82.9274C0.0600537 82.9274 -1.07961 68.3137 9.35734 56.4025Z" fill="#63823D"/>
<path id="Vector_3" d="M59.7425 108.802C59.7425 107.45 61.5419 49.1458 59.2626 38.1355C56.9833 27.0751 52.6645 26.4245 54.2241 18.5171C55.1238 13.9628 57.4031 13.1621 58.3629 6.70604C59.2626 0.249992 55.3637 0.0498047 55.3637 0.0498047C55.3637 0.0498047 59.2626 1.40107 52.8445 9.40858C46.4263 17.4161 45.0468 23.3717 51.045 28.0761C59.0227 34.382 58.7827 43.3404 58.3629 52.0986C58.003 59.0051 54.464 157.748 54.464 157.748C54.464 157.748 55.3637 160.4 57.2232 159.85C59.0827 159.199 59.7425 108.802 59.7425 108.802Z" fill="#8AB04B"/>
<path id="Vector_4" opacity="0.63" d="M3.71875 76.7214C3.71875 76.7214 6.77786 64.8102 24.7126 57.103C34.6697 52.7989 40.548 53.3495 43.6671 54.6006C46.7262 55.8518 50.5051 62.7583 40.668 65.4608C34.1299 67.2625 29.4512 66.2616 16.9149 69.915C7.73758 72.5675 3.71875 76.7214 3.71875 76.7214Z" fill="#8AB04B"/>
<path id="Vector_5" opacity="0.63" d="M37.4291 51.4478C39.9483 51.8982 39.8284 49.2457 37.549 47.6943C36.4094 47.0937 35.0298 46.5932 33.2303 46.393C19.0744 44.6414 9.35727 56.4525 9.35727 56.4525C0.599825 66.4118 0 78.323 0 81.9263C2.0394 77.6223 8.2176 65.2107 13.1362 60.256C20.8139 52.4487 34.31 50.8973 37.4291 51.4478Z" fill="#8AB04B"/>
<path id="Vector_6" d="M73.7188 72.6179C73.7188 72.6179 80.0769 67.9636 83.196 66.3621C86.9149 64.4102 98.8514 59.1553 113.127 76.8719C129.263 96.8907 136.4 100.844 137 100.594C137.6 100.294 118.646 100.294 108.928 97.3912C99.2113 94.4884 73.8387 76.6217 73.8387 76.6217L73.7188 72.6179Z" fill="#63823D"/>
<path id="Vector_7" d="M56.084 157.848C56.084 157.848 56.8638 103.247 60.8226 92.1363C64.7814 81.0259 70.6597 77.873 70.6597 77.873C70.6597 77.873 68.0805 72.9183 69.0402 70.8664C69.9999 68.8145 73.239 67.5633 79.1173 71.467C84.9356 75.3706 93.5131 88.9333 108.569 94.7888C123.804 100.694 137 100.644 137 100.644C137 100.644 103.59 101.345 89.3143 88.0825C78.6374 78.1732 72.4592 78.6237 70.9596 80.1751C69.4601 81.7266 64.4216 83.0778 61.9623 102.696C60.1628 116.809 60.7626 158.849 60.7626 158.849C60.7626 158.849 59.563 160.1 58.2434 160C57.2237 159.85 56.3839 159.95 56.084 157.848Z" fill="#8AB04B"/>
</g>
</g>
<defs>
<clipPath id="clip0_6096_1415">
<rect width="137" height="160" fill="white"/>
</clipPath>
</defs>
</svg>
