<svg width="704" height="638" viewBox="0 0 704 638" fill="none" xmlns="http://www.w3.org/2000/svg">
<rect width="704" height="638" fill="white"/>
<ellipse cx="356.906" cy="355.5" rx="238" ry="238.5" fill="#241C17"/>
<path d="M336.411 334.384L330.331 320.24C330.171 319.867 330 319.461 329.819 319.024C329.648 318.576 329.499 318.171 329.371 317.808C329.403 318.096 329.424 318.48 329.435 318.96C329.456 319.429 329.467 319.856 329.467 320.24V334H326.683V311.6H329.307L335.835 326.672C335.931 326.907 336.027 327.152 336.123 327.408C336.219 327.664 336.315 327.92 336.411 328.176C336.496 327.931 336.587 327.685 336.683 327.44C336.779 327.184 336.88 326.928 336.987 326.672L343.483 311.6H346.139V334H343.355V320.24C343.355 319.856 343.36 319.424 343.371 318.944C343.392 318.453 343.408 318.064 343.419 317.776C343.291 318.139 343.131 318.555 342.939 319.024C342.758 319.493 342.587 319.92 342.427 320.304L336.411 334.384ZM352.277 334V311.6H361.109C362.901 311.6 364.309 311.909 365.333 312.528C366.367 313.147 367.098 313.947 367.525 314.928C367.962 315.899 368.181 316.912 368.181 317.968C368.181 318.853 368.005 319.728 367.653 320.592C367.311 321.445 366.757 322.197 365.989 322.848C365.221 323.499 364.213 323.952 362.965 324.208L367.765 334H364.629L360.021 324.4H355.061V334H352.277ZM355.061 321.808H361.173C362.218 321.808 363.045 321.621 363.653 321.248C364.271 320.875 364.709 320.4 364.965 319.824C365.231 319.248 365.365 318.651 365.365 318.032C365.365 317.477 365.242 316.907 364.997 316.32C364.762 315.723 364.341 315.221 363.733 314.816C363.125 314.4 362.271 314.192 361.173 314.192H355.061V321.808ZM378.794 334L371.114 311.6H374.09L379.434 327.792C379.53 328.091 379.637 328.443 379.754 328.848C379.882 329.243 379.999 329.648 380.106 330.064C380.202 329.648 380.303 329.248 380.41 328.864C380.527 328.48 380.639 328.123 380.746 327.792L385.93 311.6H388.906L381.258 334H378.794ZM298.875 385.496V362.648H301.659V364.024C302.832 362.851 304.229 362.264 305.851 362.264C307.237 362.264 308.432 362.611 309.435 363.304C310.448 363.997 311.227 364.984 311.771 366.264C312.325 367.544 312.603 369.059 312.603 370.808C312.603 372.557 312.325 374.077 311.771 375.368C311.216 376.648 310.432 377.64 309.419 378.344C308.416 379.037 307.227 379.384 305.851 379.384C304.987 379.384 304.208 379.229 303.515 378.92C302.821 378.6 302.203 378.115 301.659 377.464V384.184L298.875 385.496ZM305.499 376.792C306.875 376.792 307.925 376.275 308.651 375.24C309.387 374.205 309.755 372.728 309.755 370.808C309.755 368.963 309.371 367.507 308.603 366.44C307.835 365.363 306.8 364.824 305.499 364.824C304.667 364.824 303.92 365.016 303.259 365.4C302.597 365.784 302.064 366.328 301.659 367.032V374.584C302.224 375.32 302.827 375.875 303.467 376.248C304.107 376.611 304.784 376.792 305.499 376.792ZM317.129 379V357.208L319.913 355.896V379H317.129ZM330.08 379.384C328.309 379.384 326.917 378.893 325.904 377.912C324.89 376.931 324.384 375.587 324.384 373.88C324.384 372.781 324.634 371.827 325.136 371.016C325.637 370.205 326.346 369.581 327.264 369.144C328.181 368.696 329.258 368.472 330.496 368.472C331.296 368.472 332.042 368.563 332.736 368.744C333.44 368.915 334.101 369.176 334.72 369.528V368.376C334.72 367.107 334.432 366.179 333.856 365.592C333.28 364.995 332.384 364.696 331.168 364.696C330.389 364.696 329.578 364.84 328.736 365.128C327.904 365.416 327.125 365.816 326.4 366.328L325.6 363.992C326.421 363.448 327.354 363.027 328.4 362.728C329.456 362.419 330.496 362.264 331.52 362.264C333.461 362.264 334.917 362.76 335.888 363.752C336.858 364.733 337.344 366.2 337.344 368.152V379H334.72V377.496C334.08 378.104 333.36 378.573 332.56 378.904C331.76 379.224 330.933 379.384 330.08 379.384ZM330.496 376.952C331.253 376.952 332 376.765 332.736 376.392C333.482 376.019 334.144 375.491 334.72 374.808V371.992C334.176 371.651 333.557 371.384 332.864 371.192C332.17 371 331.509 370.904 330.88 370.904C329.685 370.904 328.741 371.176 328.048 371.72C327.354 372.253 327.008 372.984 327.008 373.912C327.008 374.851 327.317 375.592 327.936 376.136C328.554 376.68 329.408 376.952 330.496 376.952ZM346.263 379.384C345.143 379.384 344.284 379.048 343.687 378.376C343.1 377.704 342.807 376.739 342.807 375.48V365.08H340.151V362.648H342.807V357.24L345.591 355.896V362.648H349.623V365.08H345.591V374.552C345.591 375.331 345.724 375.901 345.991 376.264C346.268 376.616 346.7 376.792 347.286 376.792C348.033 376.792 348.844 376.504 349.719 375.928L349.399 378.648C348.919 378.904 348.417 379.091 347.895 379.208C347.383 379.325 346.839 379.384 346.263 379.384ZM354.459 379V365.08H351.931V362.648H354.459V359.928C354.459 358.755 354.768 357.843 355.387 357.192C356.016 356.541 356.891 356.216 358.011 356.216C358.555 356.216 359.078 356.28 359.579 356.408C360.08 356.536 360.571 356.728 361.051 356.984V359.32C360.592 359.107 360.182 358.952 359.819 358.856C359.456 358.76 359.088 358.712 358.715 358.712C358.192 358.712 357.814 358.845 357.579 359.112C357.355 359.368 357.243 359.8 357.243 360.408V362.648H361.051V365.08H357.243V379H354.459ZM369.647 379.384C367.407 379.384 365.641 378.621 364.351 377.096C363.06 375.56 362.415 373.475 362.415 370.84C362.415 369.08 362.708 367.56 363.295 366.28C363.881 365 364.713 364.013 365.791 363.32C366.879 362.616 368.164 362.264 369.647 362.264C371.14 362.264 372.425 362.611 373.503 363.304C374.591 363.987 375.423 364.968 375.999 366.248C376.585 367.528 376.879 369.048 376.879 370.808C376.879 372.568 376.585 374.093 375.999 375.384C375.412 376.664 374.575 377.651 373.487 378.344C372.409 379.037 371.129 379.384 369.647 379.384ZM369.647 376.792C371.023 376.792 372.1 376.264 372.879 375.208C373.668 374.141 374.063 372.675 374.063 370.808C374.063 368.931 373.668 367.464 372.879 366.408C372.1 365.352 371.023 364.824 369.647 364.824C368.26 364.824 367.177 365.352 366.399 366.408C365.62 367.453 365.231 368.931 365.231 370.84C365.231 372.707 365.62 374.168 366.399 375.224C367.177 376.269 368.26 376.792 369.647 376.792ZM381.062 379V362.648H383.846V364.792C384.22 363.96 384.732 363.331 385.382 362.904C386.044 362.477 386.822 362.264 387.718 362.264C388.71 362.264 389.553 362.541 390.246 363.096L389.83 365.72C389.478 365.475 389.11 365.299 388.726 365.192C388.353 365.075 387.942 365.016 387.494 365.016C386.758 365.016 386.118 365.213 385.574 365.608C385.03 366.003 384.604 366.557 384.294 367.272C383.996 367.987 383.846 368.824 383.846 369.784V379H381.062ZM393.344 379V362.648H396.128V364.184C396.597 363.555 397.2 363.08 397.936 362.76C398.682 362.429 399.509 362.264 400.416 362.264C401.365 362.264 402.224 362.477 402.992 362.904C403.77 363.32 404.373 363.907 404.8 364.664C405.301 363.896 405.962 363.304 406.784 362.888C407.616 362.472 408.533 362.264 409.536 362.264C411.296 362.264 412.693 362.808 413.728 363.896C414.773 364.973 415.296 366.435 415.296 368.28V379H412.512V369.08C412.512 367.715 412.224 366.664 411.648 365.928C411.082 365.192 410.272 364.824 409.216 364.824C408.512 364.824 407.893 365.005 407.36 365.368C406.837 365.731 406.426 366.243 406.128 366.904C405.84 367.555 405.696 368.312 405.696 369.176V379H402.912V369.08C402.912 367.683 402.634 366.627 402.08 365.912C401.536 365.187 400.725 364.824 399.648 364.824C398.56 364.824 397.701 365.203 397.072 365.96C396.442 366.717 396.128 367.747 396.128 369.048V379H393.344Z" fill="white"/>
<path d="M354.379 621.304C353.782 619.449 351.948 617.933 350.241 616.921C346.89 615.15 342.492 614.473 338.847 615.744C338.691 615.652 338.444 615.72 338.197 615.788C337.95 615.856 337.795 615.764 337.702 615.924C337.053 615.968 336.558 616.103 335.816 616.307C334.58 616.647 333.562 617.33 332.544 618.014C328.875 620.772 327.539 625.985 331.608 629.04C334.217 631.015 337.839 631.231 340.841 631.08C344.244 630.953 348.079 630.438 351.041 628.547C353.664 626.884 355.384 624.258 354.379 621.304Z" fill="#541F17"/>
<path d="M345.382 622.743C345.134 622.811 345.134 622.811 345.382 622.743C345.134 622.811 345.29 622.904 345.382 622.743Z" fill="#541F17"/>
<path d="M622.338 443.88C622.227 442.807 621.565 441.412 620.611 440.519C620.207 439.947 619.382 439.464 618.832 439.143C618.006 438.661 617.31 438.59 616.484 438.108C614.962 437.555 613.294 437.253 611.607 437.612C610.764 437.792 609.921 437.972 608.932 438.402C607.942 438.833 607.082 439.675 606.642 440.427L606.496 440.677C605.928 441.018 605.635 441.519 605.342 442.02L605.196 442.271C605.05 442.522 604.903 442.772 604.757 443.023C605.196 442.271 605.196 442.271 604.61 443.274C604.317 443.775 604.446 444.186 604.429 444.848C604.54 445.921 605.072 446.905 606.026 447.798C608.889 450.479 613.637 450.563 616.734 449.683C619.685 449.054 623.075 447.672 622.338 443.88Z" fill="#241C17"/>
<path d="M104.266 405.979C103.312 405.086 102.065 404.693 100.965 404.051C98.963 400.528 93.0791 401.125 90.772 403.811C89.1792 405.906 88.6869 408.644 88.8914 411.453C88.235 415.103 89.7975 419.378 92.5135 422.309C93.8538 424.436 95.6156 426.474 97.6703 428.01C100.679 430.44 106.581 429.181 108.466 426.585C113.245 420.3 110.559 411 104.266 405.979Z" fill="#241C17"/>
<path d="M276.554 604.256C276.15 603.684 276.021 603.273 275.471 602.951C275.617 602.701 275.617 602.701 275.342 602.54C274.827 600.894 274.734 599.159 273.522 597.443C272.311 595.727 271.081 594.672 269.009 593.798C264.864 592.049 260.631 593.61 258.178 596.547C254.863 600.326 254.522 607.858 259.75 610.912C264.978 613.966 270.751 612.296 274.89 608.999C276.448 608.228 277.49 605.812 276.554 604.256Z" fill="#241C17"/>
<path d="M422.787 622.078C422.933 621.827 422.933 621.827 422.787 622.078C422.933 621.827 422.933 621.827 422.933 621.827C423.08 621.576 423.097 620.915 423.244 620.664L423.097 620.915C423.115 620.253 423.133 619.591 423.15 618.929C423.039 617.855 422.635 617.283 422.103 616.3C421.828 616.139 421.974 615.888 421.699 615.728C420.891 614.583 418.801 614.371 417.683 614.39C416.565 614.409 415.154 614.93 414.146 616.022C414 616.273 413.579 616.363 413.432 616.613C412.296 617.294 411.582 617.886 411.125 619.3C410.832 619.801 411.09 620.624 410.926 621.536C411.037 622.609 412.119 623.914 412.945 624.396C414.045 625.039 415.292 625.432 416.411 625.413C419.069 625.284 422.166 624.404 422.787 622.078Z" fill="#241C17"/>
<path d="M624.431 403.275C624.578 403.024 624.578 403.024 624.431 403.275C624.578 403.024 624.578 403.024 624.578 403.024C624.724 402.774 624.742 402.112 624.888 401.861L624.742 402.112C624.759 401.45 624.777 400.788 624.795 400.126C624.684 399.052 624.28 398.48 623.747 397.497C623.472 397.336 623.619 397.086 623.343 396.925C622.536 395.781 620.446 395.568 619.327 395.587C618.209 395.607 616.798 396.127 615.791 397.219C615.645 397.47 615.223 397.56 615.077 397.811C613.941 398.492 613.226 399.083 612.769 400.497C612.477 400.998 612.734 401.821 612.57 402.733C612.681 403.807 613.764 405.112 614.589 405.594C615.69 406.237 616.937 406.629 618.055 406.61C620.713 406.482 623.81 405.602 624.431 403.275Z" fill="#241C17"/>
<ellipse cx="350" cy="89.4268" rx="90" ry="89.4268" fill="#3A5929"/>
<path opacity="0.5" d="M353.356 49.1636C355.062 49.1636 356.382 49.1102 357.316 49.0036C357.556 49.5369 357.676 50.1236 357.676 50.7636C357.676 52.2569 357.022 53.0036 355.716 53.0036C355.476 53.0036 354.476 52.9902 352.716 52.9636C350.956 52.9369 349.316 52.9236 347.796 52.9236C345.289 52.9236 343.502 52.9369 342.436 52.9636C342.169 52.2169 342.036 51.5636 342.036 51.0036C342.036 49.6969 342.942 49.0436 344.756 49.0436H347.076C347.076 48.6169 347.089 47.2436 347.116 44.9236C347.142 42.5769 347.156 40.5236 347.156 38.7636C347.156 35.6969 347.116 32.8836 347.036 30.3236C344.156 30.6169 342.489 30.8036 342.036 30.8836C341.929 30.1902 341.876 29.6702 341.876 29.3236C341.876 27.6702 342.556 26.7636 343.916 26.6036C347.062 26.2036 349.409 26.0036 350.956 26.0036C351.596 26.0036 352.156 26.1636 352.636 26.4836C353.142 26.8036 353.396 27.3102 353.396 28.0036C353.396 28.2169 353.369 28.9502 353.316 30.2036C353.262 31.4569 353.209 33.0436 353.156 34.9636C353.102 36.8569 353.076 38.6969 353.076 40.4836V42.5636C353.076 45.4969 353.169 47.6969 353.356 49.1636Z" fill="white"/>
<path d="M312.71 91.5478V76.7398H308.03V74.7478H319.478V76.7398H314.798V91.5478H312.71ZM320.633 91.5478V79.2838H322.721V80.8918C323.001 80.2678 323.385 79.7958 323.873 79.4758C324.369 79.1558 324.953 78.9958 325.625 78.9958C326.369 78.9958 327.001 79.2038 327.521 79.6198L327.209 81.5878C326.945 81.4038 326.669 81.2718 326.381 81.1918C326.101 81.1038 325.793 81.0598 325.457 81.0598C324.905 81.0598 324.425 81.2078 324.017 81.5038C323.609 81.7998 323.289 82.2158 323.057 82.7518C322.833 83.2878 322.721 83.9158 322.721 84.6358V91.5478H320.633ZM333.044 91.8358C331.716 91.8358 330.672 91.4678 329.912 90.7318C329.152 89.9958 328.772 88.9878 328.772 87.7078C328.772 86.8838 328.96 86.1678 329.336 85.5598C329.712 84.9518 330.244 84.4838 330.932 84.1558C331.62 83.8198 332.428 83.6518 333.356 83.6518C333.956 83.6518 334.516 83.7198 335.036 83.8558C335.564 83.9838 336.06 84.1798 336.524 84.4438V83.5798C336.524 82.6278 336.308 81.9318 335.876 81.4918C335.444 81.0438 334.772 80.8198 333.86 80.8198C333.276 80.8198 332.668 80.9278 332.036 81.1438C331.412 81.3598 330.828 81.6598 330.284 82.0438L329.684 80.2918C330.3 79.8838 331 79.5678 331.784 79.3438C332.576 79.1118 333.356 78.9958 334.124 78.9958C335.58 78.9958 336.672 79.3678 337.4 80.1118C338.128 80.8478 338.492 81.9478 338.492 83.4118V91.5478H336.524V90.4198C336.044 90.8758 335.504 91.2278 334.904 91.4758C334.304 91.7158 333.684 91.8358 333.044 91.8358ZM333.356 90.0118C333.924 90.0118 334.484 89.8718 335.036 89.5918C335.596 89.3118 336.092 88.9158 336.524 88.4038V86.2918C336.116 86.0358 335.652 85.8358 335.132 85.6918C334.612 85.5478 334.116 85.4758 333.644 85.4758C332.748 85.4758 332.04 85.6798 331.52 86.0878C331 86.4878 330.74 87.0358 330.74 87.7318C330.74 88.4358 330.972 88.9918 331.436 89.3998C331.9 89.8078 332.54 90.0118 333.356 90.0118ZM342.149 91.5478V79.2838H344.237V91.5478H342.149ZM343.181 77.0518C342.821 77.0518 342.513 76.9278 342.257 76.6798C342.009 76.4238 341.885 76.1158 341.885 75.7558C341.885 75.3798 342.009 75.0638 342.257 74.8078C342.513 74.5438 342.821 74.4118 343.181 74.4118C343.557 74.4118 343.869 74.5438 344.117 74.8078C344.373 75.0638 344.501 75.3798 344.501 75.7558C344.501 76.1158 344.373 76.4238 344.117 76.6798C343.869 76.9278 343.557 77.0518 343.181 77.0518ZM348.219 91.5478V79.2838H350.307V80.5318C350.683 80.0118 351.135 79.6278 351.663 79.3798C352.191 79.1238 352.795 78.9958 353.475 78.9958C354.963 78.9958 356.067 79.4478 356.787 80.3518C357.507 81.2478 357.867 82.6278 357.867 84.4918V91.5478H355.779V84.1318C355.779 83.0998 355.547 82.3078 355.083 81.7558C354.627 81.1958 353.979 80.9158 353.139 80.9158C352.203 80.9158 351.495 81.1838 351.015 81.7198C350.543 82.2478 350.307 83.0358 350.307 84.0838V91.5478H348.219ZM361.766 91.5478V79.2838H363.854V91.5478H361.766ZM362.798 77.0518C362.438 77.0518 362.13 76.9278 361.874 76.6798C361.626 76.4238 361.502 76.1158 361.502 75.7558C361.502 75.3798 361.626 75.0638 361.874 74.8078C362.13 74.5438 362.438 74.4118 362.798 74.4118C363.174 74.4118 363.486 74.5438 363.734 74.8078C363.99 75.0638 364.118 75.3798 364.118 75.7558C364.118 76.1158 363.99 76.4238 363.734 76.6798C363.486 76.9278 363.174 77.0518 362.798 77.0518ZM367.836 91.5478V79.2838H369.924V80.5318C370.3 80.0118 370.752 79.6278 371.28 79.3798C371.808 79.1238 372.412 78.9958 373.092 78.9958C374.58 78.9958 375.684 79.4478 376.404 80.3518C377.124 81.2478 377.484 82.6278 377.484 84.4918V91.5478H375.396V84.1318C375.396 83.0998 375.164 82.3078 374.7 81.7558C374.244 81.1958 373.596 80.9158 372.756 80.9158C371.82 80.9158 371.112 81.1838 370.632 81.7198C370.16 82.2478 369.924 83.0358 369.924 84.0838V91.5478H367.836ZM385.479 96.6598L384.471 95.0278C385.559 94.9638 386.447 94.8158 387.135 94.5838C387.831 94.3518 388.343 94.0238 388.671 93.5998C389.007 93.1758 389.175 92.6438 389.175 92.0038V90.3478C388.439 91.3398 387.383 91.8358 386.007 91.8358C384.999 91.8358 384.119 91.5678 383.367 91.0318C382.615 90.4958 382.031 89.7478 381.615 88.7878C381.199 87.8198 380.991 86.6918 380.991 85.4038C380.991 84.0998 381.199 82.9678 381.615 82.0078C382.039 81.0478 382.631 80.3078 383.391 79.7878C384.151 79.2598 385.047 78.9958 386.079 78.9958C386.695 78.9958 387.271 79.1118 387.807 79.3438C388.351 79.5678 388.807 79.8838 389.175 80.2918V79.2838H391.263V91.2118C391.263 92.0838 391.147 92.8478 390.915 93.5038C390.683 94.1678 390.327 94.7238 389.847 95.1718C389.367 95.6198 388.763 95.9638 388.035 96.2038C387.315 96.4518 386.463 96.6038 385.479 96.6598ZM386.439 89.8918C386.967 89.8918 387.479 89.7318 387.975 89.4118C388.479 89.0918 388.879 88.6758 389.175 88.1638V82.5478C388.903 82.0758 388.503 81.6878 387.975 81.3838C387.455 81.0718 386.943 80.9158 386.439 80.9158C385.359 80.9158 384.531 81.2998 383.955 82.0678C383.387 82.8358 383.103 83.9478 383.103 85.4038C383.103 86.3158 383.239 87.1078 383.511 87.7798C383.791 88.4518 384.179 88.9718 384.675 89.3398C385.179 89.7078 385.767 89.8918 386.439 89.8918ZM310.571 120.548V110.108H308.675V108.284H310.571V106.244C310.571 105.364 310.803 104.68 311.267 104.192C311.739 103.704 312.395 103.46 313.235 103.46C313.643 103.46 314.035 103.508 314.411 103.604C314.787 103.7 315.155 103.844 315.515 104.036V105.788C315.171 105.628 314.863 105.512 314.591 105.44C314.319 105.368 314.043 105.332 313.763 105.332C313.371 105.332 313.087 105.432 312.911 105.632C312.743 105.824 312.659 106.148 312.659 106.604V108.284H315.515V110.108H312.659V120.548H310.571ZM321.349 120.836C320.021 120.836 318.977 120.468 318.217 119.732C317.457 118.996 317.077 117.988 317.077 116.708C317.077 115.884 317.265 115.168 317.641 114.56C318.017 113.952 318.549 113.484 319.237 113.156C319.925 112.82 320.733 112.652 321.661 112.652C322.261 112.652 322.821 112.72 323.341 112.856C323.869 112.984 324.365 113.18 324.829 113.444V112.58C324.829 111.628 324.613 110.932 324.181 110.492C323.749 110.044 323.077 109.82 322.165 109.82C321.581 109.82 320.973 109.928 320.341 110.144C319.717 110.36 319.133 110.66 318.589 111.044L317.989 109.292C318.605 108.884 319.305 108.568 320.089 108.344C320.881 108.112 321.661 107.996 322.429 107.996C323.885 107.996 324.977 108.368 325.705 109.112C326.433 109.848 326.797 110.948 326.797 112.412V120.548H324.829V119.42C324.349 119.876 323.809 120.228 323.209 120.476C322.609 120.716 321.989 120.836 321.349 120.836ZM321.661 119.012C322.229 119.012 322.789 118.872 323.341 118.592C323.901 118.312 324.397 117.916 324.829 117.404V115.292C324.421 115.036 323.957 114.836 323.437 114.692C322.917 114.548 322.421 114.476 321.949 114.476C321.053 114.476 320.345 114.68 319.825 115.088C319.305 115.488 319.045 116.036 319.045 116.732C319.045 117.436 319.277 117.992 319.741 118.4C320.205 118.808 320.845 119.012 321.661 119.012ZM330.734 120.548V108.284H332.822V109.892C333.102 109.268 333.486 108.796 333.974 108.476C334.47 108.156 335.054 107.996 335.726 107.996C336.47 107.996 337.102 108.204 337.622 108.62L337.31 110.588C337.046 110.404 336.77 110.272 336.482 110.192C336.202 110.104 335.894 110.06 335.558 110.06C335.006 110.06 334.526 110.208 334.118 110.504C333.71 110.8 333.39 111.216 333.158 111.752C332.934 112.288 332.822 112.916 332.822 113.636V120.548H330.734ZM339.945 120.548V108.284H342.033V109.436C342.385 108.964 342.837 108.608 343.389 108.368C343.949 108.12 344.569 107.996 345.249 107.996C345.961 107.996 346.605 108.156 347.181 108.476C347.765 108.788 348.217 109.228 348.537 109.796C348.913 109.22 349.409 108.776 350.025 108.464C350.649 108.152 351.337 107.996 352.089 107.996C353.409 107.996 354.457 108.404 355.233 109.22C356.017 110.028 356.409 111.124 356.409 112.508V120.548H354.321V113.108C354.321 112.084 354.105 111.296 353.673 110.744C353.249 110.192 352.641 109.916 351.849 109.916C351.321 109.916 350.857 110.052 350.457 110.324C350.065 110.596 349.757 110.98 349.533 111.476C349.317 111.964 349.209 112.532 349.209 113.18V120.548H347.121V113.108C347.121 112.06 346.913 111.268 346.497 110.732C346.089 110.188 345.481 109.916 344.673 109.916C343.857 109.916 343.213 110.2 342.741 110.768C342.269 111.336 342.033 112.108 342.033 113.084V120.548H339.945ZM365.345 120.836C364.225 120.836 363.257 120.56 362.441 120.008C361.625 119.456 360.997 118.696 360.557 117.728C360.117 116.76 359.897 115.652 359.897 114.404C359.897 113.052 360.125 111.9 360.581 110.948C361.037 109.988 361.673 109.256 362.489 108.752C363.305 108.248 364.257 107.996 365.345 107.996C366.265 107.996 367.109 108.204 367.877 108.62C368.645 109.028 369.257 109.664 369.713 110.528C370.177 111.384 370.409 112.484 370.409 113.828C370.409 114.02 370.401 114.244 370.385 114.5C370.377 114.748 370.361 115.004 370.337 115.268H362.033C362.113 116.012 362.297 116.664 362.585 117.224C362.873 117.784 363.253 118.224 363.725 118.544C364.197 118.856 364.753 119.012 365.393 119.012C365.913 119.012 366.393 118.92 366.833 118.736C367.281 118.552 367.697 118.268 368.081 117.884L369.305 119.252C368.849 119.708 368.281 120.088 367.601 120.392C366.929 120.688 366.177 120.836 365.345 120.836ZM362.009 113.444H368.297C368.297 112.748 368.181 112.128 367.949 111.584C367.725 111.032 367.393 110.6 366.953 110.288C366.513 109.976 365.977 109.82 365.345 109.82C364.457 109.82 363.693 110.108 363.053 110.684C362.421 111.26 362.073 112.18 362.009 113.444ZM373.765 120.548V108.284H375.853V109.892C376.133 109.268 376.517 108.796 377.005 108.476C377.501 108.156 378.085 107.996 378.757 107.996C379.501 107.996 380.133 108.204 380.653 108.62L380.341 110.588C380.077 110.404 379.801 110.272 379.513 110.192C379.233 110.104 378.925 110.06 378.589 110.06C378.037 110.06 377.557 110.208 377.149 110.504C376.741 110.8 376.421 111.216 376.189 111.752C375.965 112.288 375.853 112.916 375.853 113.636V120.548H373.765ZM386.483 120.836C385.619 120.836 384.787 120.652 383.987 120.284C383.195 119.908 382.547 119.404 382.043 118.772L383.531 117.5C383.963 117.964 384.443 118.324 384.971 118.58C385.499 118.836 386.019 118.964 386.531 118.964C387.251 118.964 387.811 118.828 388.211 118.556C388.611 118.276 388.811 117.892 388.811 117.404C388.811 117.084 388.719 116.796 388.535 116.54C388.359 116.284 388.063 116.04 387.647 115.808C387.239 115.576 386.691 115.332 386.003 115.076C384.651 114.572 383.679 114.024 383.087 113.432C382.503 112.84 382.211 112.108 382.211 111.236C382.211 110.276 382.591 109.496 383.351 108.896C384.119 108.296 385.115 107.996 386.339 107.996C387.179 107.996 387.951 108.156 388.655 108.476C389.359 108.788 389.963 109.244 390.467 109.844L389.027 111.044C388.291 110.26 387.387 109.868 386.315 109.868C385.683 109.868 385.183 109.992 384.815 110.24C384.455 110.48 384.275 110.812 384.275 111.236C384.275 111.644 384.479 112.004 384.887 112.316C385.303 112.62 386.051 112.972 387.131 113.372C388.011 113.692 388.723 114.04 389.267 114.416C389.819 114.792 390.219 115.22 390.467 115.7C390.723 116.18 390.851 116.732 390.851 117.356C390.851 118.436 390.463 119.288 389.687 119.912C388.911 120.528 387.843 120.836 386.483 120.836Z" fill="white"/>
<circle cx="534" cy="548" r="90" fill="#9AC6E9"/>
<path opacity="0.5" d="M537.076 497.44C539.209 498.293 540.662 499.28 541.436 500.4C542.209 501.493 542.596 502.827 542.596 504.4C542.596 506.56 541.622 508.44 539.676 510.04C537.729 511.613 535.062 512.4 531.676 512.4C531.036 512.4 530.396 512.373 529.756 512.32C529.142 512.267 528.409 512.16 527.556 512C526.702 511.813 526.009 511.507 525.476 511.08C524.942 510.653 524.676 510.12 524.676 509.48C524.676 508.867 524.916 508.293 525.396 507.76C525.876 507.2 526.476 506.813 527.196 506.6C527.516 507.16 528.102 507.627 528.956 508C529.809 508.347 530.729 508.52 531.716 508.52C532.942 508.52 534.009 508.173 534.916 507.48C535.849 506.76 536.316 505.787 536.316 504.56C536.316 503.12 535.836 501.96 534.876 501.08C533.942 500.2 532.689 499.76 531.116 499.76C530.636 499.76 530.262 499.747 529.996 499.72C529.756 499.693 529.476 499.613 529.156 499.48C528.836 499.347 528.609 499.12 528.476 498.8C528.342 498.48 528.276 498.067 528.276 497.56C528.276 497.053 528.316 496.613 528.396 496.24C530.742 496.24 532.502 495.787 533.676 494.88C534.876 493.973 535.476 492.907 535.476 491.68C535.476 490.8 535.222 490.133 534.716 489.68C534.209 489.227 533.556 489 532.756 489C531.822 489 530.916 489.293 530.036 489.88C529.156 490.467 528.569 491.227 528.276 492.16C527.289 492.027 526.529 491.707 525.996 491.2C525.462 490.667 525.196 490.093 525.196 489.48C525.196 488.387 525.996 487.387 527.596 486.48C529.196 485.547 531.196 485.08 533.596 485.08C536.156 485.08 538.156 485.693 539.596 486.92C541.036 488.12 541.756 489.56 541.756 491.24C541.756 494.093 540.196 496.16 537.076 497.44Z" fill="white"/>
<path d="M491.563 550V533.2H497.995C499.355 533.2 500.431 533.448 501.223 533.944C502.015 534.432 502.579 535.064 502.915 535.84C503.251 536.608 503.419 537.408 503.419 538.24C503.419 538.816 503.319 539.4 503.119 539.992C502.927 540.576 502.615 541.116 502.183 541.612C501.751 542.108 501.191 542.508 500.503 542.812C499.815 543.108 498.979 543.256 497.995 543.256H493.651V550H491.563ZM493.651 541.312H498.139C498.931 541.312 499.559 541.156 500.023 540.844C500.495 540.532 500.831 540.14 501.031 539.668C501.231 539.196 501.331 538.72 501.331 538.24C501.331 537.8 501.239 537.34 501.055 536.86C500.879 536.38 500.559 535.976 500.095 535.648C499.631 535.312 498.979 535.144 498.139 535.144H493.651V541.312ZM506.32 550V537.736H508.408V539.344C508.688 538.72 509.072 538.248 509.56 537.928C510.056 537.608 510.64 537.448 511.312 537.448C512.056 537.448 512.688 537.656 513.208 538.072L512.896 540.04C512.632 539.856 512.356 539.724 512.068 539.644C511.788 539.556 511.48 539.512 511.144 539.512C510.592 539.512 510.112 539.66 509.704 539.956C509.296 540.252 508.976 540.668 508.744 541.204C508.52 541.74 508.408 542.368 508.408 543.088V550H506.32ZM519.743 550.288C518.063 550.288 516.739 549.716 515.771 548.572C514.803 547.42 514.319 545.856 514.319 543.88C514.319 542.56 514.539 541.42 514.979 540.46C515.419 539.5 516.043 538.76 516.851 538.24C517.667 537.712 518.631 537.448 519.743 537.448C520.863 537.448 521.827 537.708 522.635 538.228C523.451 538.74 524.075 539.476 524.507 540.436C524.947 541.396 525.167 542.536 525.167 543.856C525.167 545.176 524.947 546.32 524.507 547.288C524.067 548.248 523.439 548.988 522.623 549.508C521.815 550.028 520.855 550.288 519.743 550.288ZM519.743 548.344C520.775 548.344 521.583 547.948 522.167 547.156C522.759 546.356 523.055 545.256 523.055 543.856C523.055 542.448 522.759 541.348 522.167 540.556C521.583 539.764 520.775 539.368 519.743 539.368C518.703 539.368 517.891 539.764 517.307 540.556C516.723 541.34 516.431 542.448 516.431 543.88C516.431 545.28 516.723 546.376 517.307 547.168C517.891 547.952 518.703 548.344 519.743 548.344ZM533.141 550.288C531.581 550.288 530.345 549.712 529.433 548.56C528.529 547.4 528.077 545.832 528.077 543.856C528.077 542.544 528.281 541.408 528.689 540.448C529.105 539.488 529.689 538.748 530.441 538.228C531.201 537.708 532.101 537.448 533.141 537.448C534.341 537.448 535.373 537.832 536.237 538.6V533.656L538.325 532.672V550H536.237V549.04C535.429 549.872 534.397 550.288 533.141 550.288ZM533.429 548.344C534.005 548.344 534.537 548.2 535.025 547.912C535.521 547.624 535.925 547.216 536.237 546.688V540.928C535.925 540.448 535.521 540.068 535.025 539.788C534.529 539.508 533.997 539.368 533.429 539.368C532.397 539.368 531.597 539.756 531.029 540.532C530.469 541.308 530.189 542.416 530.189 543.856C530.189 544.744 530.325 545.524 530.597 546.196C530.869 546.868 531.249 547.396 531.737 547.78C532.225 548.156 532.789 548.344 533.429 548.344ZM546.617 550.288C545.105 550.288 543.981 549.84 543.245 548.944C542.517 548.048 542.153 546.672 542.153 544.816V537.736H544.241V545.128C544.241 546.168 544.469 546.964 544.925 547.516C545.381 548.068 546.033 548.344 546.881 548.344C547.817 548.344 548.521 548.076 548.993 547.54C549.473 547.004 549.713 546.216 549.713 545.176V537.736H551.801V550H549.713V548.824C549.321 549.328 548.877 549.7 548.381 549.94C547.893 550.172 547.305 550.288 546.617 550.288ZM560.048 550.288C558.992 550.288 558.084 550.032 557.324 549.52C556.564 549 555.98 548.264 555.572 547.312C555.164 546.352 554.96 545.208 554.96 543.88C554.96 542.544 555.168 541.396 555.584 540.436C556 539.476 556.592 538.74 557.36 538.228C558.136 537.708 559.064 537.448 560.144 537.448C561.2 537.448 562.096 537.692 562.832 538.18C563.568 538.668 564.104 539.376 564.44 540.304L562.472 541.024C562.272 540.496 561.972 540.092 561.572 539.812C561.18 539.532 560.712 539.392 560.168 539.392C559.176 539.392 558.416 539.776 557.888 540.544C557.36 541.312 557.096 542.424 557.096 543.88C557.096 545.304 557.356 546.4 557.876 547.168C558.396 547.936 559.136 548.32 560.096 548.32C560.712 548.32 561.236 548.16 561.668 547.84C562.108 547.52 562.416 547.072 562.592 546.496L564.536 547.144C564.24 548.152 563.7 548.928 562.916 549.472C562.132 550.016 561.176 550.288 560.048 550.288ZM572.595 550.288C571.475 550.288 570.507 550.012 569.691 549.46C568.875 548.908 568.247 548.148 567.807 547.18C567.367 546.212 567.147 545.104 567.147 543.856C567.147 542.504 567.375 541.352 567.831 540.4C568.287 539.44 568.923 538.708 569.739 538.204C570.555 537.7 571.507 537.448 572.595 537.448C573.515 537.448 574.359 537.656 575.127 538.072C575.895 538.48 576.507 539.116 576.963 539.98C577.427 540.836 577.659 541.936 577.659 543.28C577.659 543.472 577.651 543.696 577.635 543.952C577.627 544.2 577.611 544.456 577.587 544.72H569.283C569.363 545.464 569.547 546.116 569.835 546.676C570.123 547.236 570.503 547.676 570.975 547.996C571.447 548.308 572.003 548.464 572.643 548.464C573.163 548.464 573.643 548.372 574.083 548.188C574.531 548.004 574.947 547.72 575.331 547.336L576.555 548.704C576.099 549.16 575.531 549.54 574.851 549.844C574.179 550.14 573.427 550.288 572.595 550.288ZM569.259 542.896H575.547C575.547 542.2 575.431 541.58 575.199 541.036C574.975 540.484 574.643 540.052 574.203 539.74C573.763 539.428 573.227 539.272 572.595 539.272C571.707 539.272 570.943 539.56 570.303 540.136C569.671 540.712 569.323 541.632 569.259 542.896ZM494.598 579V562.2H500.55C501.878 562.2 502.922 562.416 503.682 562.848C504.442 563.272 504.982 563.824 505.302 564.504C505.622 565.184 505.782 565.896 505.782 566.64C505.782 567.408 505.566 568.1 505.134 568.716C504.702 569.332 504.094 569.808 503.31 570.144C503.958 570.344 504.51 570.64 504.966 571.032C505.43 571.416 505.782 571.876 506.022 572.412C506.262 572.948 506.382 573.536 506.382 574.176C506.382 574.744 506.29 575.312 506.106 575.88C505.922 576.448 505.618 576.968 505.194 577.44C504.778 577.912 504.218 578.292 503.514 578.58C502.818 578.86 501.958 579 500.934 579H494.598ZM496.686 577.08H501.174C501.998 577.08 502.638 576.944 503.094 576.672C503.55 576.4 503.866 576.052 504.042 575.628C504.226 575.204 504.318 574.768 504.318 574.32C504.318 573.784 504.21 573.28 503.994 572.808C503.778 572.336 503.386 571.956 502.818 571.668C502.258 571.372 501.454 571.224 500.406 571.224H496.686V577.08ZM496.686 569.328H500.142C501.334 569.328 502.226 569.084 502.818 568.596C503.418 568.108 503.718 567.464 503.718 566.664C503.718 566.256 503.638 565.856 503.478 565.464C503.326 565.064 503.03 564.736 502.59 564.48C502.15 564.224 501.51 564.096 500.67 564.096H496.686V569.328ZM510.012 579V566.736H512.1V579H510.012ZM511.044 564.504C510.684 564.504 510.376 564.38 510.12 564.132C509.872 563.876 509.748 563.568 509.748 563.208C509.748 562.832 509.872 562.516 510.12 562.26C510.376 561.996 510.684 561.864 511.044 561.864C511.42 561.864 511.732 561.996 511.98 562.26C512.236 562.516 512.364 562.832 512.364 563.208C512.364 563.568 512.236 563.876 511.98 564.132C511.732 564.38 511.42 564.504 511.044 564.504ZM520.786 579.288C519.106 579.288 517.782 578.716 516.814 577.572C515.846 576.42 515.362 574.856 515.362 572.88C515.362 571.56 515.582 570.42 516.022 569.46C516.462 568.5 517.086 567.76 517.894 567.24C518.71 566.712 519.674 566.448 520.786 566.448C521.906 566.448 522.87 566.708 523.678 567.228C524.494 567.74 525.118 568.476 525.55 569.436C525.99 570.396 526.21 571.536 526.21 572.856C526.21 574.176 525.99 575.32 525.55 576.288C525.11 577.248 524.482 577.988 523.666 578.508C522.858 579.028 521.898 579.288 520.786 579.288ZM520.786 577.344C521.818 577.344 522.626 576.948 523.21 576.156C523.802 575.356 524.098 574.256 524.098 572.856C524.098 571.448 523.802 570.348 523.21 569.556C522.626 568.764 521.818 568.368 520.786 568.368C519.746 568.368 518.934 568.764 518.35 569.556C517.766 570.34 517.474 571.448 517.474 572.88C517.474 574.28 517.766 575.376 518.35 576.168C518.934 576.952 519.746 577.344 520.786 577.344ZM534.208 579.288C533.152 579.288 532.244 579.032 531.484 578.52C530.724 578 530.14 577.264 529.732 576.312C529.324 575.352 529.12 574.208 529.12 572.88C529.12 571.544 529.328 570.396 529.744 569.436C530.16 568.476 530.752 567.74 531.52 567.228C532.296 566.708 533.224 566.448 534.304 566.448C535.36 566.448 536.256 566.692 536.992 567.18C537.728 567.668 538.264 568.376 538.6 569.304L536.632 570.024C536.432 569.496 536.132 569.092 535.732 568.812C535.34 568.532 534.872 568.392 534.328 568.392C533.336 568.392 532.576 568.776 532.048 569.544C531.52 570.312 531.256 571.424 531.256 572.88C531.256 574.304 531.516 575.4 532.036 576.168C532.556 576.936 533.296 577.32 534.256 577.32C534.872 577.32 535.396 577.16 535.828 576.84C536.268 576.52 536.576 576.072 536.752 575.496L538.696 576.144C538.4 577.152 537.86 577.928 537.076 578.472C536.292 579.016 535.336 579.288 534.208 579.288ZM541.84 579V562.632L543.928 561.672V568.008C544.304 567.488 544.756 567.1 545.284 566.844C545.82 566.58 546.424 566.448 547.096 566.448C548.16 566.448 549.012 566.668 549.652 567.108C550.3 567.548 550.768 568.18 551.056 569.004C551.344 569.82 551.488 570.8 551.488 571.944V579H549.4V571.584C549.4 570.624 549.184 569.848 548.752 569.256C548.328 568.664 547.664 568.368 546.76 568.368C545.824 568.368 545.116 568.636 544.636 569.172C544.164 569.7 543.928 570.488 543.928 571.536V579H541.84ZM559.032 579.288C557.704 579.288 556.66 578.92 555.9 578.184C555.14 577.448 554.76 576.44 554.76 575.16C554.76 574.336 554.948 573.62 555.324 573.012C555.7 572.404 556.232 571.936 556.92 571.608C557.608 571.272 558.416 571.104 559.344 571.104C559.944 571.104 560.504 571.172 561.024 571.308C561.552 571.436 562.048 571.632 562.512 571.896V571.032C562.512 570.08 562.296 569.384 561.864 568.944C561.432 568.496 560.76 568.272 559.848 568.272C559.264 568.272 558.656 568.38 558.024 568.596C557.4 568.812 556.816 569.112 556.272 569.496L555.672 567.744C556.288 567.336 556.988 567.02 557.772 566.796C558.564 566.564 559.344 566.448 560.112 566.448C561.568 566.448 562.66 566.82 563.388 567.564C564.116 568.3 564.48 569.4 564.48 570.864V579H562.512V577.872C562.032 578.328 561.492 578.68 560.892 578.928C560.292 579.168 559.672 579.288 559.032 579.288ZM559.344 577.464C559.912 577.464 560.472 577.324 561.024 577.044C561.584 576.764 562.08 576.368 562.512 575.856V573.744C562.104 573.488 561.64 573.288 561.12 573.144C560.6 573 560.104 572.928 559.632 572.928C558.736 572.928 558.028 573.132 557.508 573.54C556.988 573.94 556.728 574.488 556.728 575.184C556.728 575.888 556.96 576.444 557.424 576.852C557.888 577.26 558.528 577.464 559.344 577.464ZM568.418 579V566.736H570.506V568.344C570.786 567.72 571.17 567.248 571.658 566.928C572.154 566.608 572.738 566.448 573.41 566.448C574.154 566.448 574.786 566.656 575.306 567.072L574.994 569.04C574.73 568.856 574.454 568.724 574.166 568.644C573.886 568.556 573.578 568.512 573.242 568.512C572.69 568.512 572.21 568.66 571.802 568.956C571.394 569.252 571.074 569.668 570.842 570.204C570.618 570.74 570.506 571.368 570.506 572.088V579H568.418Z" fill="white"/>
<circle cx="614" cy="252" r="90" fill="#89984E"/>
<path opacity="0.5" d="M607.676 196.72C605.702 196.16 604.716 195.107 604.716 193.56C604.716 192.493 605.729 191.48 607.756 190.52C609.782 189.56 611.942 189.08 614.236 189.08C616.636 189.08 618.662 189.747 620.316 191.08C621.969 192.387 622.796 194.253 622.796 196.68C622.796 197.507 622.649 198.373 622.356 199.28C622.062 200.16 621.729 200.96 621.356 201.68C621.009 202.373 620.449 203.173 619.676 204.08C618.902 204.987 618.289 205.693 617.836 206.2C617.382 206.68 616.636 207.373 615.596 208.28C614.582 209.16 613.902 209.747 613.556 210.04C613.209 210.307 612.529 210.853 611.516 211.68C611.569 211.707 611.862 211.72 612.396 211.72C615.649 211.72 617.982 211.667 619.396 211.56C620.809 211.453 622.222 211.16 623.636 210.68C623.982 211.613 624.156 212.4 624.156 213.04C624.156 214.213 623.809 215 623.116 215.4C622.289 215.853 619.782 216.08 615.596 216.08C614.396 216.08 612.742 216.067 610.636 216.04C608.529 216.013 607.049 216 606.196 216C604.782 216 604.076 215.2 604.076 213.6C604.076 213.147 604.156 212.547 604.316 211.8C609.462 207.293 612.809 204.16 614.356 202.4C615.902 200.64 616.676 198.893 616.676 197.16C616.676 195.773 616.382 194.747 615.796 194.08C615.209 193.413 614.436 193.08 613.476 193.08C612.436 193.08 611.369 193.427 610.276 194.12C609.182 194.813 608.316 195.68 607.676 196.72Z" fill="white"/>
<path d="M581.881 254.288C580.609 254.288 579.529 254.04 578.641 253.544C577.753 253.048 577.037 252.384 576.493 251.552C575.949 250.712 575.549 249.776 575.293 248.744C575.045 247.712 574.921 246.664 574.921 245.6C574.921 244.544 575.049 243.504 575.305 242.48C575.569 241.448 575.977 240.512 576.529 239.672C577.081 238.832 577.797 238.164 578.677 237.668C579.565 237.164 580.633 236.912 581.881 236.912C582.913 236.912 583.785 237.06 584.497 237.356C585.217 237.652 585.801 238.032 586.249 238.496C586.705 238.952 587.057 239.432 587.305 239.936L585.433 240.896C585.169 240.504 584.881 240.156 584.569 239.852C584.257 239.54 583.885 239.296 583.453 239.12C583.021 238.944 582.497 238.856 581.881 238.856C580.985 238.856 580.229 239.06 579.613 239.468C578.997 239.876 578.501 240.412 578.125 241.076C577.757 241.74 577.489 242.468 577.321 243.26C577.161 244.052 577.081 244.832 577.081 245.6C577.081 246.432 577.173 247.248 577.357 248.048C577.541 248.848 577.829 249.572 578.221 250.22C578.613 250.86 579.109 251.372 579.709 251.756C580.317 252.132 581.041 252.32 581.881 252.32C582.809 252.32 583.553 252.124 584.113 251.732C584.673 251.332 585.145 250.816 585.529 250.184L587.449 250.904C587.161 251.528 586.769 252.096 586.273 252.608C585.777 253.12 585.165 253.528 584.437 253.832C583.717 254.136 582.865 254.288 581.881 254.288ZM595.641 254.288C593.961 254.288 592.637 253.716 591.669 252.572C590.701 251.42 590.217 249.856 590.217 247.88C590.217 246.56 590.437 245.42 590.877 244.46C591.317 243.5 591.941 242.76 592.749 242.24C593.565 241.712 594.529 241.448 595.641 241.448C596.761 241.448 597.725 241.708 598.533 242.228C599.349 242.74 599.973 243.476 600.405 244.436C600.845 245.396 601.065 246.536 601.065 247.856C601.065 249.176 600.845 250.32 600.405 251.288C599.965 252.248 599.337 252.988 598.521 253.508C597.713 254.028 596.753 254.288 595.641 254.288ZM595.641 252.344C596.673 252.344 597.481 251.948 598.065 251.156C598.657 250.356 598.953 249.256 598.953 247.856C598.953 246.448 598.657 245.348 598.065 244.556C597.481 243.764 596.673 243.368 595.641 243.368C594.601 243.368 593.789 243.764 593.205 244.556C592.621 245.34 592.329 246.448 592.329 247.88C592.329 249.28 592.621 250.376 593.205 251.168C593.789 251.952 594.601 252.344 595.641 252.344ZM604.44 254V237.656L606.528 236.672V254H604.44ZM610.721 254V237.656L612.809 236.672V254H610.721ZM621.611 254.288C620.491 254.288 619.523 254.012 618.707 253.46C617.891 252.908 617.263 252.148 616.823 251.18C616.383 250.212 616.163 249.104 616.163 247.856C616.163 246.504 616.391 245.352 616.847 244.4C617.303 243.44 617.939 242.708 618.755 242.204C619.571 241.7 620.523 241.448 621.611 241.448C622.531 241.448 623.375 241.656 624.143 242.072C624.911 242.48 625.523 243.116 625.979 243.98C626.443 244.836 626.675 245.936 626.675 247.28C626.675 247.472 626.667 247.696 626.651 247.952C626.643 248.2 626.627 248.456 626.603 248.72H618.299C618.379 249.464 618.563 250.116 618.851 250.676C619.139 251.236 619.519 251.676 619.991 251.996C620.463 252.308 621.019 252.464 621.659 252.464C622.179 252.464 622.659 252.372 623.099 252.188C623.547 252.004 623.963 251.72 624.347 251.336L625.571 252.704C625.115 253.16 624.547 253.54 623.867 253.844C623.195 254.14 622.443 254.288 621.611 254.288ZM618.275 246.896H624.563C624.563 246.2 624.447 245.58 624.215 245.036C623.991 244.484 623.659 244.052 623.219 243.74C622.779 243.428 622.243 243.272 621.611 243.272C620.723 243.272 619.959 243.56 619.319 244.136C618.687 244.712 618.339 245.632 618.275 246.896ZM634.587 254.288C633.531 254.288 632.623 254.032 631.863 253.52C631.103 253 630.519 252.264 630.111 251.312C629.703 250.352 629.499 249.208 629.499 247.88C629.499 246.544 629.707 245.396 630.123 244.436C630.539 243.476 631.131 242.74 631.899 242.228C632.675 241.708 633.603 241.448 634.683 241.448C635.739 241.448 636.635 241.692 637.371 242.18C638.107 242.668 638.643 243.376 638.979 244.304L637.011 245.024C636.811 244.496 636.511 244.092 636.111 243.812C635.719 243.532 635.251 243.392 634.707 243.392C633.715 243.392 632.955 243.776 632.427 244.544C631.899 245.312 631.635 246.424 631.635 247.88C631.635 249.304 631.895 250.4 632.415 251.168C632.935 251.936 633.675 252.32 634.635 252.32C635.251 252.32 635.775 252.16 636.207 251.84C636.647 251.52 636.955 251.072 637.131 250.496L639.075 251.144C638.779 252.152 638.239 252.928 637.455 253.472C636.671 254.016 635.715 254.288 634.587 254.288ZM645.392 254.288C644.552 254.288 643.908 254.036 643.46 253.532C643.02 253.028 642.8 252.304 642.8 251.36V243.56H640.808V241.736H642.8V237.68L644.888 236.672V241.736H647.912V243.56H644.888V250.664C644.888 251.248 644.988 251.676 645.188 251.948C645.396 252.212 645.72 252.344 646.16 252.344C646.72 252.344 647.328 252.128 647.984 251.696L647.744 253.736C647.384 253.928 647.008 254.068 646.616 254.156C646.232 254.244 645.824 254.288 645.392 254.288ZM543.037 283.288C542.429 283.288 541.877 283.18 541.381 282.964C540.885 282.748 540.389 282.408 539.893 281.944V283H537.805V266.656L539.893 265.672V271.792C540.277 271.368 540.737 271.04 541.273 270.808C541.817 270.568 542.381 270.448 542.965 270.448C544.005 270.448 544.905 270.708 545.665 271.228C546.425 271.748 547.013 272.488 547.429 273.448C547.845 274.408 548.053 275.544 548.053 276.856C548.053 278.896 547.613 280.48 546.733 281.608C545.853 282.728 544.621 283.288 543.037 283.288ZM542.749 281.344C543.773 281.344 544.557 280.956 545.101 280.18C545.645 279.404 545.917 278.296 545.917 276.856C545.917 275.392 545.645 274.28 545.101 273.52C544.565 272.752 543.781 272.368 542.749 272.368C542.197 272.368 541.653 272.524 541.117 272.836C540.581 273.14 540.173 273.528 539.893 274V279.688C540.197 280.192 540.601 280.596 541.105 280.9C541.617 281.196 542.164 281.344 542.749 281.344ZM551.305 283V270.736H553.393V283H551.305ZM552.337 268.504C551.977 268.504 551.669 268.38 551.413 268.132C551.165 267.876 551.041 267.568 551.041 267.208C551.041 266.832 551.165 266.516 551.413 266.26C551.669 265.996 551.977 265.864 552.337 265.864C552.713 265.864 553.025 265.996 553.273 266.26C553.529 266.516 553.657 266.832 553.657 267.208C553.657 267.568 553.529 267.876 553.273 268.132C553.025 268.38 552.713 268.504 552.337 268.504ZM562.079 283.288C560.399 283.288 559.075 282.716 558.107 281.572C557.139 280.42 556.655 278.856 556.655 276.88C556.655 275.56 556.875 274.42 557.315 273.46C557.755 272.5 558.379 271.76 559.187 271.24C560.003 270.712 560.967 270.448 562.079 270.448C563.199 270.448 564.163 270.708 564.971 271.228C565.787 271.74 566.411 272.476 566.843 273.436C567.283 274.396 567.503 275.536 567.503 276.856C567.503 278.176 567.283 279.32 566.843 280.288C566.403 281.248 565.775 281.988 564.959 282.508C564.151 283.028 563.191 283.288 562.079 283.288ZM562.079 281.344C563.111 281.344 563.919 280.948 564.503 280.156C565.095 279.356 565.391 278.256 565.391 276.856C565.391 275.448 565.095 274.348 564.503 273.556C563.919 272.764 563.111 272.368 562.079 272.368C561.039 272.368 560.227 272.764 559.643 273.556C559.059 274.34 558.767 275.448 558.767 276.88C558.767 278.28 559.059 279.376 559.643 280.168C560.227 280.952 561.039 281.344 562.079 281.344ZM570.64 283V270.736H572.728V271.888C573.08 271.416 573.532 271.06 574.084 270.82C574.644 270.572 575.264 270.448 575.944 270.448C576.656 270.448 577.3 270.608 577.876 270.928C578.46 271.24 578.912 271.68 579.232 272.248C579.608 271.672 580.104 271.228 580.72 270.916C581.344 270.604 582.032 270.448 582.784 270.448C584.104 270.448 585.152 270.856 585.928 271.672C586.712 272.48 587.104 273.576 587.104 274.96V283H585.016V275.56C585.016 274.536 584.8 273.748 584.368 273.196C583.944 272.644 583.336 272.368 582.544 272.368C582.016 272.368 581.552 272.504 581.152 272.776C580.76 273.048 580.452 273.432 580.228 273.928C580.012 274.416 579.904 274.984 579.904 275.632V283H577.816V275.56C577.816 274.512 577.608 273.72 577.192 273.184C576.784 272.64 576.176 272.368 575.368 272.368C574.552 272.368 573.908 272.652 573.436 273.22C572.964 273.788 572.728 274.56 572.728 275.536V283H570.64ZM594.63 283.288C593.302 283.288 592.258 282.92 591.498 282.184C590.738 281.448 590.358 280.44 590.358 279.16C590.358 278.336 590.546 277.62 590.922 277.012C591.298 276.404 591.83 275.936 592.518 275.608C593.206 275.272 594.014 275.104 594.942 275.104C595.542 275.104 596.102 275.172 596.622 275.308C597.15 275.436 597.646 275.632 598.11 275.896V275.032C598.11 274.08 597.894 273.384 597.462 272.944C597.03 272.496 596.358 272.272 595.446 272.272C594.862 272.272 594.254 272.38 593.622 272.596C592.998 272.812 592.414 273.112 591.87 273.496L591.27 271.744C591.886 271.336 592.586 271.02 593.37 270.796C594.162 270.564 594.942 270.448 595.71 270.448C597.166 270.448 598.258 270.82 598.986 271.564C599.714 272.3 600.078 273.4 600.078 274.864V283H598.11V281.872C597.63 282.328 597.09 282.68 596.49 282.928C595.89 283.168 595.27 283.288 594.63 283.288ZM594.942 281.464C595.51 281.464 596.07 281.324 596.622 281.044C597.182 280.764 597.678 280.368 598.11 279.856V277.744C597.702 277.488 597.238 277.288 596.718 277.144C596.198 277 595.702 276.928 595.23 276.928C594.334 276.928 593.626 277.132 593.106 277.54C592.586 277.94 592.326 278.488 592.326 279.184C592.326 279.888 592.558 280.444 593.022 280.852C593.486 281.26 594.126 281.464 594.942 281.464ZM607.335 283.288C606.471 283.288 605.639 283.104 604.839 282.736C604.047 282.36 603.399 281.856 602.895 281.224L604.383 279.952C604.815 280.416 605.295 280.776 605.823 281.032C606.351 281.288 606.871 281.416 607.383 281.416C608.103 281.416 608.663 281.28 609.063 281.008C609.463 280.728 609.663 280.344 609.663 279.856C609.663 279.536 609.571 279.248 609.387 278.992C609.211 278.736 608.915 278.492 608.499 278.26C608.091 278.028 607.543 277.784 606.855 277.528C605.503 277.024 604.531 276.476 603.939 275.884C603.355 275.292 603.063 274.56 603.063 273.688C603.063 272.728 603.443 271.948 604.203 271.348C604.971 270.748 605.967 270.448 607.191 270.448C608.031 270.448 608.803 270.608 609.507 270.928C610.211 271.24 610.815 271.696 611.319 272.296L609.879 273.496C609.143 272.712 608.239 272.32 607.167 272.32C606.535 272.32 606.035 272.444 605.667 272.692C605.307 272.932 605.127 273.264 605.127 273.688C605.127 274.096 605.331 274.456 605.739 274.768C606.155 275.072 606.903 275.424 607.983 275.824C608.863 276.144 609.575 276.492 610.119 276.868C610.671 277.244 611.071 277.672 611.319 278.152C611.575 278.632 611.703 279.184 611.703 279.808C611.703 280.888 611.315 281.74 610.539 282.364C609.763 282.98 608.695 283.288 607.335 283.288ZM618.585 283.288C617.721 283.288 616.889 283.104 616.089 282.736C615.297 282.36 614.649 281.856 614.145 281.224L615.633 279.952C616.065 280.416 616.545 280.776 617.073 281.032C617.601 281.288 618.121 281.416 618.633 281.416C619.353 281.416 619.913 281.28 620.313 281.008C620.713 280.728 620.913 280.344 620.913 279.856C620.913 279.536 620.821 279.248 620.637 278.992C620.461 278.736 620.165 278.492 619.749 278.26C619.341 278.028 618.793 277.784 618.105 277.528C616.753 277.024 615.781 276.476 615.189 275.884C614.605 275.292 614.313 274.56 614.313 273.688C614.313 272.728 614.693 271.948 615.453 271.348C616.221 270.748 617.217 270.448 618.441 270.448C619.281 270.448 620.053 270.608 620.757 270.928C621.461 271.24 622.065 271.696 622.569 272.296L621.129 273.496C620.393 272.712 619.489 272.32 618.417 272.32C617.785 272.32 617.285 272.444 616.917 272.692C616.557 272.932 616.377 273.264 616.377 273.688C616.377 274.096 616.581 274.456 616.989 274.768C617.405 275.072 618.153 275.424 619.233 275.824C620.113 276.144 620.825 276.492 621.369 276.868C621.921 277.244 622.321 277.672 622.569 278.152C622.825 278.632 622.953 279.184 622.953 279.808C622.953 280.888 622.565 281.74 621.789 282.364C621.013 282.98 619.945 283.288 618.585 283.288ZM633.911 283L630.767 270.736H632.831L634.703 278.968C634.759 279.192 634.807 279.416 634.847 279.64C634.895 279.856 634.935 280.064 634.967 280.264C635.007 280.056 635.055 279.844 635.111 279.628C635.167 279.404 635.223 279.184 635.279 278.968L637.583 270.736H639.311L641.615 278.968C641.679 279.208 641.739 279.44 641.795 279.664C641.851 279.88 641.903 280.096 641.951 280.312C641.991 280.104 642.031 279.888 642.071 279.664C642.111 279.44 642.159 279.208 642.215 278.968L644.063 270.736H646.127L642.983 283H641.111L638.879 275.728C638.807 275.488 638.727 275.22 638.639 274.924C638.559 274.628 638.487 274.36 638.423 274.12C638.367 274.36 638.299 274.628 638.219 274.924C638.139 275.22 638.063 275.488 637.991 275.728L635.783 283H633.911ZM652.333 283.288C651.005 283.288 649.961 282.92 649.201 282.184C648.441 281.448 648.061 280.44 648.061 279.16C648.061 278.336 648.249 277.62 648.625 277.012C649.001 276.404 649.533 275.936 650.221 275.608C650.909 275.272 651.717 275.104 652.645 275.104C653.245 275.104 653.805 275.172 654.325 275.308C654.853 275.436 655.349 275.632 655.813 275.896V275.032C655.813 274.08 655.597 273.384 655.165 272.944C654.733 272.496 654.061 272.272 653.149 272.272C652.565 272.272 651.957 272.38 651.325 272.596C650.701 272.812 650.117 273.112 649.573 273.496L648.973 271.744C649.589 271.336 650.289 271.02 651.073 270.796C651.865 270.564 652.645 270.448 653.413 270.448C654.869 270.448 655.961 270.82 656.689 271.564C657.417 272.3 657.781 273.4 657.781 274.864V283H655.813V281.872C655.333 282.328 654.793 282.68 654.193 282.928C653.593 283.168 652.973 283.288 652.333 283.288ZM652.645 281.464C653.213 281.464 653.773 281.324 654.325 281.044C654.885 280.764 655.381 280.368 655.813 279.856V277.744C655.405 277.488 654.941 277.288 654.421 277.144C653.901 277 653.405 276.928 652.933 276.928C652.037 276.928 651.329 277.132 650.809 277.54C650.289 277.94 650.029 278.488 650.029 279.184C650.029 279.888 650.261 280.444 650.725 280.852C651.189 281.26 651.829 281.464 652.645 281.464ZM665.038 283.288C664.174 283.288 663.342 283.104 662.542 282.736C661.75 282.36 661.102 281.856 660.598 281.224L662.086 279.952C662.518 280.416 662.998 280.776 663.526 281.032C664.054 281.288 664.574 281.416 665.086 281.416C665.806 281.416 666.366 281.28 666.766 281.008C667.166 280.728 667.366 280.344 667.366 279.856C667.366 279.536 667.274 279.248 667.09 278.992C666.914 278.736 666.618 278.492 666.202 278.26C665.794 278.028 665.246 277.784 664.558 277.528C663.206 277.024 662.234 276.476 661.642 275.884C661.058 275.292 660.766 274.56 660.766 273.688C660.766 272.728 661.146 271.948 661.906 271.348C662.674 270.748 663.67 270.448 664.894 270.448C665.734 270.448 666.506 270.608 667.21 270.928C667.914 271.24 668.518 271.696 669.022 272.296L667.582 273.496C666.846 272.712 665.942 272.32 664.87 272.32C664.238 272.32 663.738 272.444 663.37 272.692C663.01 272.932 662.83 273.264 662.83 273.688C662.83 274.096 663.034 274.456 663.442 274.768C663.858 275.072 664.606 275.424 665.686 275.824C666.566 276.144 667.278 276.492 667.822 276.868C668.374 277.244 668.774 277.672 669.022 278.152C669.278 278.632 669.406 279.184 669.406 279.808C669.406 280.888 669.018 281.74 668.242 282.364C667.466 282.98 666.398 283.288 665.038 283.288ZM675.838 283.288C674.998 283.288 674.354 283.036 673.906 282.532C673.466 282.028 673.246 281.304 673.246 280.36V272.56H671.254V270.736H673.246V266.68L675.334 265.672V270.736H678.358V272.56H675.334V279.664C675.334 280.248 675.434 280.676 675.634 280.948C675.842 281.212 676.166 281.344 676.605 281.344C677.166 281.344 677.774 281.128 678.43 280.696L678.19 282.736C677.83 282.928 677.454 283.068 677.062 283.156C676.678 283.244 676.27 283.288 675.838 283.288ZM685.993 283.288C684.873 283.288 683.905 283.012 683.089 282.46C682.273 281.908 681.645 281.148 681.205 280.18C680.765 279.212 680.545 278.104 680.545 276.856C680.545 275.504 680.773 274.352 681.229 273.4C681.685 272.44 682.321 271.708 683.137 271.204C683.953 270.7 684.905 270.448 685.993 270.448C686.913 270.448 687.757 270.656 688.525 271.072C689.293 271.48 689.905 272.116 690.361 272.98C690.825 273.836 691.057 274.936 691.057 276.28C691.057 276.472 691.049 276.696 691.033 276.952C691.025 277.2 691.009 277.456 690.985 277.72H682.681C682.761 278.464 682.945 279.116 683.233 279.676C683.521 280.236 683.901 280.676 684.373 280.996C684.845 281.308 685.401 281.464 686.041 281.464C686.561 281.464 687.041 281.372 687.481 281.188C687.929 281.004 688.345 280.72 688.729 280.336L689.953 281.704C689.497 282.16 688.929 282.54 688.249 282.844C687.577 283.14 686.825 283.288 685.993 283.288ZM682.657 275.896H688.945C688.945 275.2 688.829 274.58 688.597 274.036C688.373 273.484 688.041 273.052 687.601 272.74C687.161 272.428 686.625 272.272 685.993 272.272C685.105 272.272 684.341 272.56 683.701 273.136C683.069 273.712 682.721 274.632 682.657 275.896Z" fill="white"/>
<circle cx="90" cy="252" r="90" fill="#C44736"/>
<path opacity="0.5" d="M89.5556 198.12C92.3823 198.12 94.5823 198.973 96.1556 200.68C97.729 202.36 98.5156 204.48 98.5156 207.04C98.5156 208.693 98.1823 210.16 97.5156 211.44C96.849 212.693 95.9556 213.68 94.8356 214.4C93.7156 215.093 92.529 215.613 91.2756 215.96C90.049 216.28 88.7556 216.44 87.3956 216.44C85.4756 216.44 83.849 216.187 82.5156 215.68C81.209 215.173 80.5556 214.493 80.5556 213.64C80.5556 213.08 80.7956 212.547 81.2756 212.04C81.7823 211.507 82.409 211.147 83.1556 210.96C83.929 212.08 85.289 212.64 87.2356 212.64C88.7556 212.64 89.969 212.16 90.8756 211.2C91.7823 210.213 92.2356 209.04 92.2356 207.68C92.2356 206.107 91.6223 204.747 90.3956 203.6C89.169 202.427 87.3823 201.84 85.0356 201.84C84.3156 201.84 83.4223 201.933 82.3556 202.12C82.089 201.72 81.9556 200.827 81.9556 199.44C81.9556 199.04 82.129 195.707 82.4756 189.44C83.4356 189.493 86.7023 189.52 92.2756 189.52C95.2356 189.52 97.0623 189.413 97.7556 189.2C98.1556 189.973 98.3556 190.68 98.3556 191.32C98.3556 192.093 98.0756 192.72 97.5156 193.2C96.9556 193.68 96.1823 193.92 95.1956 193.92C93.169 193.92 90.7556 193.84 87.9556 193.68L87.3556 198.28C88.0223 198.173 88.7556 198.12 89.5556 198.12Z" fill="white"/>
<path d="M21.0608 254.288C19.7888 254.288 18.7088 254.04 17.8208 253.544C16.9328 253.048 16.2168 252.384 15.6728 251.552C15.1288 250.712 14.7288 249.776 14.4728 248.744C14.2248 247.712 14.1008 246.664 14.1008 245.6C14.1008 244.544 14.2288 243.504 14.4848 242.48C14.7488 241.448 15.1568 240.512 15.7088 239.672C16.2608 238.832 16.9768 238.164 17.8568 237.668C18.7448 237.164 19.8128 236.912 21.0608 236.912C22.0928 236.912 22.9648 237.06 23.6768 237.356C24.3968 237.652 24.9808 238.032 25.4288 238.496C25.8848 238.952 26.2368 239.432 26.4848 239.936L24.6128 240.896C24.3488 240.504 24.0608 240.156 23.7488 239.852C23.4368 239.54 23.0648 239.296 22.6328 239.12C22.2008 238.944 21.6768 238.856 21.0608 238.856C20.1648 238.856 19.4088 239.06 18.7928 239.468C18.1768 239.876 17.6808 240.412 17.3048 241.076C16.9368 241.74 16.6688 242.468 16.5008 243.26C16.3408 244.052 16.2608 244.832 16.2608 245.6C16.2608 246.432 16.3528 247.248 16.5368 248.048C16.7208 248.848 17.0088 249.572 17.4008 250.22C17.7928 250.86 18.2888 251.372 18.8888 251.756C19.4968 252.132 20.2208 252.32 21.0608 252.32C21.9888 252.32 22.7328 252.124 23.2928 251.732C23.8528 251.332 24.3248 250.816 24.7088 250.184L26.6288 250.904C26.3408 251.528 25.9488 252.096 25.4528 252.608C24.9568 253.12 24.3448 253.528 23.6168 253.832C22.8968 254.136 22.0448 254.288 21.0608 254.288ZM29.9998 254V241.736H32.0878V243.344C32.3678 242.72 32.7518 242.248 33.2398 241.928C33.7358 241.608 34.3198 241.448 34.9918 241.448C35.7358 241.448 36.3678 241.656 36.8878 242.072L36.5758 244.04C36.3118 243.856 36.0358 243.724 35.7478 243.644C35.4678 243.556 35.1598 243.512 34.8238 243.512C34.2718 243.512 33.7918 243.66 33.3838 243.956C32.9758 244.252 32.6558 244.668 32.4238 245.204C32.1998 245.74 32.0878 246.368 32.0878 247.088V254H29.9998ZM43.4466 254.288C42.3266 254.288 41.3586 254.012 40.5426 253.46C39.7266 252.908 39.0986 252.148 38.6586 251.18C38.2186 250.212 37.9986 249.104 37.9986 247.856C37.9986 246.504 38.2266 245.352 38.6826 244.4C39.1386 243.44 39.7746 242.708 40.5906 242.204C41.4066 241.7 42.3586 241.448 43.4466 241.448C44.3666 241.448 45.2106 241.656 45.9786 242.072C46.7466 242.48 47.3586 243.116 47.8146 243.98C48.2786 244.836 48.5106 245.936 48.5106 247.28C48.5106 247.472 48.5026 247.696 48.4866 247.952C48.4786 248.2 48.4626 248.456 48.4386 248.72H40.1346C40.2146 249.464 40.3986 250.116 40.6866 250.676C40.9746 251.236 41.3546 251.676 41.8266 251.996C42.2986 252.308 42.8546 252.464 43.4946 252.464C44.0146 252.464 44.4946 252.372 44.9346 252.188C45.3826 252.004 45.7986 251.72 46.1826 251.336L47.4066 252.704C46.9506 253.16 46.3826 253.54 45.7026 253.844C45.0306 254.14 44.2786 254.288 43.4466 254.288ZM40.1106 246.896H46.3986C46.3986 246.2 46.2826 245.58 46.0506 245.036C45.8266 244.484 45.4946 244.052 45.0546 243.74C44.6146 243.428 44.0786 243.272 43.4466 243.272C42.5586 243.272 41.7946 243.56 41.1546 244.136C40.5226 244.712 40.1746 245.632 40.1106 246.896ZM55.0674 254.288C53.7394 254.288 52.6954 253.92 51.9354 253.184C51.1754 252.448 50.7954 251.44 50.7954 250.16C50.7954 249.336 50.9834 248.62 51.3594 248.012C51.7354 247.404 52.2674 246.936 52.9554 246.608C53.6434 246.272 54.4514 246.104 55.3794 246.104C55.9794 246.104 56.5394 246.172 57.0594 246.308C57.5874 246.436 58.0834 246.632 58.5474 246.896V246.032C58.5474 245.08 58.3314 244.384 57.8994 243.944C57.4674 243.496 56.7954 243.272 55.8834 243.272C55.2994 243.272 54.6914 243.38 54.0594 243.596C53.4354 243.812 52.8514 244.112 52.3074 244.496L51.7074 242.744C52.3234 242.336 53.0234 242.02 53.8074 241.796C54.5994 241.564 55.3794 241.448 56.1474 241.448C57.6034 241.448 58.6954 241.82 59.4234 242.564C60.1514 243.3 60.5154 244.4 60.5154 245.864V254H58.5474V252.872C58.0674 253.328 57.5274 253.68 56.9274 253.928C56.3274 254.168 55.7074 254.288 55.0674 254.288ZM55.3794 252.464C55.9474 252.464 56.5074 252.324 57.0594 252.044C57.6194 251.764 58.1154 251.368 58.5474 250.856V248.744C58.1394 248.488 57.6754 248.288 57.1554 248.144C56.6354 248 56.1394 247.928 55.6674 247.928C54.7714 247.928 54.0634 248.132 53.5434 248.54C53.0234 248.94 52.7634 249.488 52.7634 250.184C52.7634 250.888 52.9954 251.444 53.4594 251.852C53.9234 252.26 54.5634 252.464 55.3794 252.464ZM67.2047 254.288C66.3647 254.288 65.7207 254.036 65.2727 253.532C64.8327 253.028 64.6127 252.304 64.6127 251.36V243.56H62.6207V241.736H64.6127V237.68L66.7007 236.672V241.736H69.7247V243.56H66.7007V250.664C66.7007 251.248 66.8007 251.676 67.0007 251.948C67.2087 252.212 67.5327 252.344 67.9727 252.344C68.5327 252.344 69.1407 252.128 69.7967 251.696L69.5567 253.736C69.1967 253.928 68.8207 254.068 68.4287 254.156C68.0447 254.244 67.6367 254.288 67.2047 254.288ZM77.3606 254.288C76.2406 254.288 75.2726 254.012 74.4566 253.46C73.6406 252.908 73.0126 252.148 72.5726 251.18C72.1326 250.212 71.9126 249.104 71.9126 247.856C71.9126 246.504 72.1406 245.352 72.5966 244.4C73.0526 243.44 73.6886 242.708 74.5046 242.204C75.3206 241.7 76.2726 241.448 77.3606 241.448C78.2806 241.448 79.1246 241.656 79.8926 242.072C80.6606 242.48 81.2726 243.116 81.7286 243.98C82.1926 244.836 82.4246 245.936 82.4246 247.28C82.4246 247.472 82.4166 247.696 82.4006 247.952C82.3926 248.2 82.3766 248.456 82.3526 248.72H74.0486C74.1286 249.464 74.3126 250.116 74.6006 250.676C74.8886 251.236 75.2686 251.676 75.7406 251.996C76.2126 252.308 76.7686 252.464 77.4086 252.464C77.9286 252.464 78.4086 252.372 78.8486 252.188C79.2966 252.004 79.7126 251.72 80.0966 251.336L81.3206 252.704C80.8646 253.16 80.2966 253.54 79.6166 253.844C78.9446 254.14 78.1926 254.288 77.3606 254.288ZM74.0246 246.896H80.3126C80.3126 246.2 80.1966 245.58 79.9646 245.036C79.7406 244.484 79.4086 244.052 78.9686 243.74C78.5286 243.428 77.9926 243.272 77.3606 243.272C76.4726 243.272 75.7086 243.56 75.0686 244.136C74.4366 244.712 74.0886 245.632 74.0246 246.896ZM97.7951 254.288C96.5231 254.288 95.4431 254.04 94.5551 253.544C93.6671 253.048 92.9511 252.384 92.4071 251.552C91.8631 250.712 91.4631 249.776 91.2071 248.744C90.9591 247.712 90.8351 246.664 90.8351 245.6C90.8351 244.544 90.9631 243.504 91.2191 242.48C91.4831 241.448 91.8911 240.512 92.4431 239.672C92.9951 238.832 93.7111 238.164 94.5911 237.668C95.4791 237.164 96.5471 236.912 97.7951 236.912C98.8271 236.912 99.6991 237.06 100.411 237.356C101.131 237.652 101.715 238.032 102.163 238.496C102.619 238.952 102.971 239.432 103.219 239.936L101.347 240.896C101.083 240.504 100.795 240.156 100.483 239.852C100.171 239.54 99.7991 239.296 99.3671 239.12C98.9351 238.944 98.4111 238.856 97.7951 238.856C96.8991 238.856 96.1431 239.06 95.5271 239.468C94.9111 239.876 94.4151 240.412 94.0391 241.076C93.6711 241.74 93.4031 242.468 93.2351 243.26C93.0751 244.052 92.9951 244.832 92.9951 245.6C92.9951 246.432 93.0871 247.248 93.2711 248.048C93.4551 248.848 93.7431 249.572 94.1351 250.22C94.5271 250.86 95.0231 251.372 95.6231 251.756C96.2311 252.132 96.9551 252.32 97.7951 252.32C98.7231 252.32 99.4671 252.124 100.027 251.732C100.587 251.332 101.059 250.816 101.443 250.184L103.363 250.904C103.075 251.528 102.683 252.096 102.187 252.608C101.691 253.12 101.079 253.528 100.351 253.832C99.6311 254.136 98.7791 254.288 97.7951 254.288ZM110.286 254.288C108.958 254.288 107.914 253.92 107.154 253.184C106.394 252.448 106.014 251.44 106.014 250.16C106.014 249.336 106.202 248.62 106.578 248.012C106.954 247.404 107.486 246.936 108.174 246.608C108.862 246.272 109.67 246.104 110.598 246.104C111.198 246.104 111.758 246.172 112.278 246.308C112.806 246.436 113.302 246.632 113.766 246.896V246.032C113.766 245.08 113.55 244.384 113.118 243.944C112.686 243.496 112.014 243.272 111.102 243.272C110.518 243.272 109.91 243.38 109.278 243.596C108.654 243.812 108.07 244.112 107.526 244.496L106.926 242.744C107.542 242.336 108.242 242.02 109.026 241.796C109.818 241.564 110.598 241.448 111.366 241.448C112.822 241.448 113.914 241.82 114.642 242.564C115.37 243.3 115.734 244.4 115.734 245.864V254H113.766V252.872C113.286 253.328 112.746 253.68 112.146 253.928C111.546 254.168 110.926 254.288 110.286 254.288ZM110.598 252.464C111.166 252.464 111.726 252.324 112.278 252.044C112.838 251.764 113.334 251.368 113.766 250.856V248.744C113.358 248.488 112.894 248.288 112.374 248.144C111.854 248 111.358 247.928 110.886 247.928C109.99 247.928 109.282 248.132 108.762 248.54C108.242 248.94 107.982 249.488 107.982 250.184C107.982 250.888 108.214 251.444 108.678 251.852C109.142 252.26 109.782 252.464 110.598 252.464ZM119.672 254V241.736H121.76V243.344C122.04 242.72 122.424 242.248 122.912 241.928C123.408 241.608 123.992 241.448 124.664 241.448C125.408 241.448 126.04 241.656 126.56 242.072L126.248 244.04C125.984 243.856 125.708 243.724 125.42 243.644C125.14 243.556 124.832 243.512 124.496 243.512C123.944 243.512 123.464 243.66 123.056 243.956C122.648 244.252 122.328 244.668 122.096 245.204C121.872 245.74 121.76 246.368 121.76 247.088V254H119.672ZM134.115 254.288C133.507 254.288 132.955 254.18 132.459 253.964C131.963 253.748 131.467 253.408 130.971 252.944V254H128.883V237.656L130.971 236.672V242.792C131.355 242.368 131.815 242.04 132.351 241.808C132.895 241.568 133.459 241.448 134.043 241.448C135.083 241.448 135.983 241.708 136.743 242.228C137.503 242.748 138.091 243.488 138.507 244.448C138.923 245.408 139.131 246.544 139.131 247.856C139.131 249.896 138.691 251.48 137.811 252.608C136.931 253.728 135.699 254.288 134.115 254.288ZM133.827 252.344C134.851 252.344 135.635 251.956 136.179 251.18C136.723 250.404 136.995 249.296 136.995 247.856C136.995 246.392 136.723 245.28 136.179 244.52C135.643 243.752 134.859 243.368 133.827 243.368C133.275 243.368 132.731 243.524 132.195 243.836C131.659 244.14 131.251 244.528 130.971 245V250.688C131.275 251.192 131.679 251.596 132.183 251.9C132.695 252.196 133.243 252.344 133.827 252.344ZM147.438 254.288C145.758 254.288 144.434 253.716 143.466 252.572C142.498 251.42 142.014 249.856 142.014 247.88C142.014 246.56 142.234 245.42 142.674 244.46C143.114 243.5 143.738 242.76 144.546 242.24C145.362 241.712 146.326 241.448 147.438 241.448C148.558 241.448 149.522 241.708 150.33 242.228C151.146 242.74 151.77 243.476 152.202 244.436C152.642 245.396 152.862 246.536 152.862 247.856C152.862 249.176 152.642 250.32 152.202 251.288C151.762 252.248 151.134 252.988 150.318 253.508C149.51 254.028 148.55 254.288 147.438 254.288ZM147.438 252.344C148.47 252.344 149.278 251.948 149.862 251.156C150.454 250.356 150.75 249.256 150.75 247.856C150.75 246.448 150.454 245.348 149.862 244.556C149.278 243.764 148.47 243.368 147.438 243.368C146.398 243.368 145.586 243.764 145.002 244.556C144.418 245.34 144.126 246.448 144.126 247.88C144.126 249.28 144.418 250.376 145.002 251.168C145.586 251.952 146.398 252.344 147.438 252.344ZM156 254V241.736H158.088V242.984C158.464 242.464 158.916 242.08 159.444 241.832C159.972 241.576 160.576 241.448 161.256 241.448C162.744 241.448 163.848 241.9 164.568 242.804C165.288 243.7 165.648 245.08 165.648 246.944V254H163.56V246.584C163.56 245.552 163.328 244.76 162.864 244.208C162.408 243.648 161.76 243.368 160.92 243.368C159.984 243.368 159.276 243.636 158.796 244.172C158.324 244.7 158.088 245.488 158.088 246.536V254H156ZM11.5747 283V266.2H18.1987C19.5427 266.2 20.5987 266.432 21.3667 266.896C22.1427 267.36 22.6907 267.96 23.0107 268.696C23.3387 269.424 23.5027 270.184 23.5027 270.976C23.5027 271.64 23.3707 272.296 23.1067 272.944C22.8507 273.584 22.4347 274.148 21.8587 274.636C21.2827 275.124 20.5267 275.464 19.5907 275.656L23.1907 283H20.8387L17.3827 275.8H13.6627V283H11.5747ZM13.6627 273.856H18.2467C19.0307 273.856 19.6507 273.716 20.1067 273.436C20.5707 273.156 20.8987 272.8 21.0907 272.368C21.2907 271.936 21.3907 271.488 21.3907 271.024C21.3907 270.608 21.2987 270.18 21.1147 269.74C20.9387 269.292 20.6227 268.916 20.1667 268.612C19.7107 268.3 19.0707 268.144 18.2467 268.144H13.6627V273.856ZM31.2942 283.288C30.1742 283.288 29.2062 283.012 28.3902 282.46C27.5742 281.908 26.9462 281.148 26.5062 280.18C26.0662 279.212 25.8462 278.104 25.8462 276.856C25.8462 275.504 26.0742 274.352 26.5302 273.4C26.9862 272.44 27.6222 271.708 28.4382 271.204C29.2542 270.7 30.2062 270.448 31.2942 270.448C32.2142 270.448 33.0582 270.656 33.8262 271.072C34.5942 271.48 35.2062 272.116 35.6622 272.98C36.1262 273.836 36.3582 274.936 36.3582 276.28C36.3582 276.472 36.3502 276.696 36.3342 276.952C36.3262 277.2 36.3102 277.456 36.2862 277.72H27.9822C28.0622 278.464 28.2462 279.116 28.5342 279.676C28.8222 280.236 29.2022 280.676 29.6742 280.996C30.1462 281.308 30.7022 281.464 31.3422 281.464C31.8622 281.464 32.3422 281.372 32.7822 281.188C33.2302 281.004 33.6462 280.72 34.0302 280.336L35.2542 281.704C34.7982 282.16 34.2302 282.54 33.5502 282.844C32.8782 283.14 32.1262 283.288 31.2942 283.288ZM27.9582 275.896H34.2462C34.2462 275.2 34.1302 274.58 33.8982 274.036C33.6742 273.484 33.3422 273.052 32.9022 272.74C32.4622 272.428 31.9262 272.272 31.2942 272.272C30.4062 272.272 29.6422 272.56 29.0022 273.136C28.3702 273.712 28.0222 274.632 27.9582 275.896ZM39.7147 283V270.736H41.8027V271.888C42.1547 271.416 42.6067 271.06 43.1587 270.82C43.7187 270.572 44.3387 270.448 45.0187 270.448C45.7307 270.448 46.3747 270.608 46.9507 270.928C47.5347 271.24 47.9867 271.68 48.3067 272.248C48.6827 271.672 49.1787 271.228 49.7947 270.916C50.4187 270.604 51.1067 270.448 51.8587 270.448C53.1787 270.448 54.2267 270.856 55.0027 271.672C55.7867 272.48 56.1787 273.576 56.1787 274.96V283H54.0907V275.56C54.0907 274.536 53.8747 273.748 53.4427 273.196C53.0187 272.644 52.4107 272.368 51.6187 272.368C51.0907 272.368 50.6267 272.504 50.2267 272.776C49.8347 273.048 49.5267 273.432 49.3027 273.928C49.0867 274.416 48.9787 274.984 48.9787 275.632V283H46.8907V275.56C46.8907 274.512 46.6827 273.72 46.2667 273.184C45.8587 272.64 45.2507 272.368 44.4427 272.368C43.6267 272.368 42.9827 272.652 42.5107 273.22C42.0387 273.788 41.8027 274.56 41.8027 275.536V283H39.7147ZM65.0905 283.288C63.4105 283.288 62.0865 282.716 61.1185 281.572C60.1505 280.42 59.6665 278.856 59.6665 276.88C59.6665 275.56 59.8865 274.42 60.3265 273.46C60.7665 272.5 61.3905 271.76 62.1985 271.24C63.0145 270.712 63.9785 270.448 65.0905 270.448C66.2105 270.448 67.1745 270.708 67.9825 271.228C68.7985 271.74 69.4225 272.476 69.8545 273.436C70.2945 274.396 70.5145 275.536 70.5145 276.856C70.5145 278.176 70.2945 279.32 69.8545 280.288C69.4145 281.248 68.7865 281.988 67.9705 282.508C67.1625 283.028 66.2025 283.288 65.0905 283.288ZM65.0905 281.344C66.1225 281.344 66.9305 280.948 67.5145 280.156C68.1065 279.356 68.4025 278.256 68.4025 276.856C68.4025 275.448 68.1065 274.348 67.5145 273.556C66.9305 272.764 66.1225 272.368 65.0905 272.368C64.0505 272.368 63.2385 272.764 62.6545 273.556C62.0705 274.34 61.7785 275.448 61.7785 276.88C61.7785 278.28 62.0705 279.376 62.6545 280.168C63.2385 280.952 64.0505 281.344 65.0905 281.344ZM76.9282 283L72.4402 270.736H74.5522L77.4562 278.92C77.5282 279.12 77.5962 279.316 77.6602 279.508C77.7242 279.7 77.7842 279.904 77.8402 280.12C77.9042 279.904 77.9642 279.7 78.0202 279.508C78.0842 279.316 78.1522 279.12 78.2242 278.92L81.0802 270.736H83.1682L78.6802 283H76.9282ZM89.0167 283.288C87.6887 283.288 86.6447 282.92 85.8847 282.184C85.1247 281.448 84.7447 280.44 84.7447 279.16C84.7447 278.336 84.9327 277.62 85.3087 277.012C85.6847 276.404 86.2167 275.936 86.9047 275.608C87.5927 275.272 88.4007 275.104 89.3287 275.104C89.9287 275.104 90.4887 275.172 91.0087 275.308C91.5367 275.436 92.0327 275.632 92.4967 275.896V275.032C92.4967 274.08 92.2807 273.384 91.8487 272.944C91.4167 272.496 90.7447 272.272 89.8327 272.272C89.2487 272.272 88.6407 272.38 88.0087 272.596C87.3847 272.812 86.8007 273.112 86.2567 273.496L85.6567 271.744C86.2727 271.336 86.9727 271.02 87.7567 270.796C88.5487 270.564 89.3287 270.448 90.0967 270.448C91.5527 270.448 92.6447 270.82 93.3727 271.564C94.1007 272.3 94.4647 273.4 94.4647 274.864V283H92.4967V281.872C92.0167 282.328 91.4767 282.68 90.8767 282.928C90.2767 283.168 89.6567 283.288 89.0167 283.288ZM89.3287 281.464C89.8967 281.464 90.4567 281.324 91.0087 281.044C91.5687 280.764 92.0647 280.368 92.4967 279.856V277.744C92.0887 277.488 91.6247 277.288 91.1047 277.144C90.5847 277 90.0887 276.928 89.6167 276.928C88.7207 276.928 88.0127 277.132 87.4927 277.54C86.9727 277.94 86.7127 278.488 86.7127 279.184C86.7127 279.888 86.9447 280.444 87.4087 280.852C87.8727 281.26 88.5127 281.464 89.3287 281.464ZM98.2175 283V266.656L100.305 265.672V283H98.2175ZM114.395 283.288C113.339 283.288 112.431 283.032 111.671 282.52C110.911 282 110.327 281.264 109.919 280.312C109.511 279.352 109.307 278.208 109.307 276.88C109.307 275.544 109.515 274.396 109.931 273.436C110.347 272.476 110.939 271.74 111.707 271.228C112.483 270.708 113.411 270.448 114.491 270.448C115.547 270.448 116.443 270.692 117.179 271.18C117.915 271.668 118.451 272.376 118.787 273.304L116.819 274.024C116.619 273.496 116.319 273.092 115.919 272.812C115.527 272.532 115.059 272.392 114.515 272.392C113.523 272.392 112.763 272.776 112.235 273.544C111.707 274.312 111.443 275.424 111.443 276.88C111.443 278.304 111.703 279.4 112.223 280.168C112.743 280.936 113.483 281.32 114.443 281.32C115.059 281.32 115.583 281.16 116.015 280.84C116.455 280.52 116.763 280.072 116.939 279.496L118.883 280.144C118.587 281.152 118.047 281.928 117.263 282.472C116.479 283.016 115.523 283.288 114.395 283.288ZM122.074 283V270.736H124.162V272.344C124.442 271.72 124.826 271.248 125.314 270.928C125.81 270.608 126.394 270.448 127.066 270.448C127.81 270.448 128.442 270.656 128.962 271.072L128.65 273.04C128.386 272.856 128.11 272.724 127.822 272.644C127.542 272.556 127.234 272.512 126.898 272.512C126.346 272.512 125.866 272.66 125.458 272.956C125.05 273.252 124.73 273.668 124.498 274.204C124.274 274.74 124.162 275.368 124.162 276.088V283H122.074ZM135.521 283.288C134.401 283.288 133.433 283.012 132.617 282.46C131.801 281.908 131.173 281.148 130.733 280.18C130.293 279.212 130.073 278.104 130.073 276.856C130.073 275.504 130.301 274.352 130.757 273.4C131.213 272.44 131.849 271.708 132.665 271.204C133.481 270.7 134.433 270.448 135.521 270.448C136.441 270.448 137.285 270.656 138.053 271.072C138.821 271.48 139.433 272.116 139.889 272.98C140.353 273.836 140.585 274.936 140.585 276.28C140.585 276.472 140.577 276.696 140.561 276.952C140.553 277.2 140.537 277.456 140.513 277.72H132.209C132.289 278.464 132.473 279.116 132.761 279.676C133.049 280.236 133.429 280.676 133.901 280.996C134.373 281.308 134.929 281.464 135.569 281.464C136.089 281.464 136.569 281.372 137.009 281.188C137.457 281.004 137.873 280.72 138.257 280.336L139.481 281.704C139.025 282.16 138.457 282.54 137.777 282.844C137.105 283.14 136.353 283.288 135.521 283.288ZM132.185 275.896H138.473C138.473 275.2 138.357 274.58 138.125 274.036C137.901 273.484 137.569 273.052 137.129 272.74C136.689 272.428 136.153 272.272 135.521 272.272C134.633 272.272 133.869 272.56 133.229 273.136C132.597 273.712 132.249 274.632 132.185 275.896ZM148.473 283.288C146.913 283.288 145.677 282.712 144.765 281.56C143.861 280.4 143.409 278.832 143.409 276.856C143.409 275.544 143.613 274.408 144.021 273.448C144.437 272.488 145.021 271.748 145.773 271.228C146.533 270.708 147.433 270.448 148.473 270.448C149.673 270.448 150.705 270.832 151.569 271.6V266.656L153.657 265.672V283H151.569V282.04C150.761 282.872 149.729 283.288 148.473 283.288ZM148.761 281.344C149.337 281.344 149.869 281.2 150.357 280.912C150.853 280.624 151.257 280.216 151.569 279.688V273.928C151.257 273.448 150.853 273.068 150.357 272.788C149.861 272.508 149.329 272.368 148.761 272.368C147.729 272.368 146.929 272.756 146.361 273.532C145.801 274.308 145.521 275.416 145.521 276.856C145.521 277.744 145.657 278.524 145.929 279.196C146.201 279.868 146.581 280.396 147.069 280.78C147.557 281.156 148.121 281.344 148.761 281.344ZM157.629 283V270.736H159.717V283H157.629ZM158.661 268.504C158.301 268.504 157.993 268.38 157.737 268.132C157.489 267.876 157.365 267.568 157.365 267.208C157.365 266.832 157.489 266.516 157.737 266.26C157.993 265.996 158.301 265.864 158.661 265.864C159.037 265.864 159.349 265.996 159.597 266.26C159.853 266.516 159.981 266.832 159.981 267.208C159.981 267.568 159.853 267.876 159.597 268.132C159.349 268.38 159.037 268.504 158.661 268.504ZM167.107 283.288C166.267 283.288 165.623 283.036 165.175 282.532C164.735 282.028 164.515 281.304 164.515 280.36V272.56H162.523V270.736H164.515V266.68L166.603 265.672V270.736H169.627V272.56H166.603V279.664C166.603 280.248 166.703 280.676 166.903 280.948C167.111 281.212 167.435 281.344 167.875 281.344C168.435 281.344 169.043 281.128 169.699 280.696L169.459 282.736C169.099 282.928 168.723 283.068 168.331 283.156C167.947 283.244 167.539 283.288 167.107 283.288Z" fill="white"/>
<circle cx="170" cy="548" r="90" fill="#E4BB3B"/>
<path opacity="0.5" d="M164.796 500.32C165.382 500.347 166.396 500.36 167.836 500.36C168.876 500.36 169.862 500.32 170.796 500.24C170.796 497.787 170.836 495.16 170.916 492.36C170.702 492.627 170.156 493.293 169.276 494.36C168.422 495.4 167.622 496.4 166.876 497.36C166.156 498.32 165.462 499.307 164.796 500.32ZM169.796 486.32C170.702 485.493 172.169 485.08 174.196 485.08C175.449 485.08 176.422 485.173 177.116 485.36C177.116 485.44 177.076 486.013 176.996 487.08C176.942 488.12 176.889 489.587 176.836 491.48C176.782 493.347 176.756 495.32 176.756 497.4V500.16C178.702 500 179.996 499.773 180.636 499.48C180.902 500.227 181.036 501.013 181.036 501.84C181.036 502.987 180.769 503.68 180.236 503.92C179.542 504.24 178.382 504.413 176.756 504.44C176.756 507.32 177.076 509.8 177.716 511.88C176.729 512.227 175.596 512.4 174.316 512.4C172.876 512.4 171.916 512.133 171.436 511.6C170.956 511.067 170.716 510.147 170.716 508.84C170.716 508.707 170.742 507.227 170.796 504.4C166.129 504.4 162.836 504.32 160.916 504.16C160.169 504.107 159.676 503.893 159.436 503.52C159.196 503.12 159.076 502.533 159.076 501.76C159.076 501.547 159.102 501.173 159.156 500.64C160.249 498.773 161.982 496.227 164.356 493C166.756 489.773 168.569 487.547 169.796 486.32Z" fill="white"/>
<path d="M126.965 550V533.2H129.053V550H126.965ZM133.379 550V537.736H135.467V538.984C135.843 538.464 136.295 538.08 136.823 537.832C137.351 537.576 137.955 537.448 138.635 537.448C140.123 537.448 141.227 537.9 141.947 538.804C142.667 539.7 143.027 541.08 143.027 542.944V550H140.939V542.584C140.939 541.552 140.707 540.76 140.243 540.208C139.787 539.648 139.139 539.368 138.299 539.368C137.363 539.368 136.655 539.636 136.175 540.172C135.703 540.7 135.467 541.488 135.467 542.536V550H133.379ZM151.622 550.288C150.566 550.288 149.658 550.032 148.898 549.52C148.138 549 147.554 548.264 147.146 547.312C146.738 546.352 146.534 545.208 146.534 543.88C146.534 542.544 146.742 541.396 147.158 540.436C147.574 539.476 148.166 538.74 148.934 538.228C149.71 537.708 150.638 537.448 151.718 537.448C152.774 537.448 153.67 537.692 154.406 538.18C155.142 538.668 155.678 539.376 156.014 540.304L154.046 541.024C153.846 540.496 153.546 540.092 153.146 539.812C152.754 539.532 152.286 539.392 151.742 539.392C150.75 539.392 149.99 539.776 149.462 540.544C148.934 541.312 148.67 542.424 148.67 543.88C148.67 545.304 148.93 546.4 149.45 547.168C149.97 547.936 150.71 548.32 151.67 548.32C152.286 548.32 152.81 548.16 153.242 547.84C153.682 547.52 153.99 547.072 154.166 546.496L156.11 547.144C155.814 548.152 155.274 548.928 154.49 549.472C153.706 550.016 152.75 550.288 151.622 550.288ZM159.301 550V537.736H161.389V539.344C161.669 538.72 162.053 538.248 162.541 537.928C163.037 537.608 163.621 537.448 164.293 537.448C165.037 537.448 165.669 537.656 166.189 538.072L165.877 540.04C165.613 539.856 165.337 539.724 165.049 539.644C164.769 539.556 164.461 539.512 164.125 539.512C163.573 539.512 163.093 539.66 162.685 539.956C162.277 540.252 161.957 540.668 161.725 541.204C161.501 541.74 161.389 542.368 161.389 543.088V550H159.301ZM172.747 550.288C171.627 550.288 170.659 550.012 169.843 549.46C169.027 548.908 168.399 548.148 167.959 547.18C167.519 546.212 167.299 545.104 167.299 543.856C167.299 542.504 167.527 541.352 167.983 540.4C168.439 539.44 169.075 538.708 169.891 538.204C170.707 537.7 171.659 537.448 172.747 537.448C173.667 537.448 174.511 537.656 175.279 538.072C176.047 538.48 176.659 539.116 177.115 539.98C177.579 540.836 177.811 541.936 177.811 543.28C177.811 543.472 177.803 543.696 177.787 543.952C177.779 544.2 177.763 544.456 177.739 544.72H169.435C169.515 545.464 169.699 546.116 169.987 546.676C170.275 547.236 170.655 547.676 171.127 547.996C171.599 548.308 172.155 548.464 172.795 548.464C173.315 548.464 173.795 548.372 174.235 548.188C174.683 548.004 175.099 547.72 175.483 547.336L176.707 548.704C176.251 549.16 175.683 549.54 175.003 549.844C174.331 550.14 173.579 550.288 172.747 550.288ZM169.411 542.896H175.699C175.699 542.2 175.583 541.58 175.351 541.036C175.127 540.484 174.795 540.052 174.355 539.74C173.915 539.428 173.379 539.272 172.747 539.272C171.859 539.272 171.095 539.56 170.455 540.136C169.823 540.712 169.475 541.632 169.411 542.896ZM184.368 550.288C183.04 550.288 181.996 549.92 181.236 549.184C180.476 548.448 180.096 547.44 180.096 546.16C180.096 545.336 180.284 544.62 180.66 544.012C181.036 543.404 181.568 542.936 182.256 542.608C182.944 542.272 183.752 542.104 184.68 542.104C185.28 542.104 185.84 542.172 186.36 542.308C186.888 542.436 187.384 542.632 187.848 542.896V542.032C187.848 541.08 187.632 540.384 187.2 539.944C186.768 539.496 186.096 539.272 185.184 539.272C184.6 539.272 183.992 539.38 183.36 539.596C182.736 539.812 182.152 540.112 181.608 540.496L181.008 538.744C181.624 538.336 182.324 538.02 183.108 537.796C183.9 537.564 184.68 537.448 185.448 537.448C186.904 537.448 187.996 537.82 188.724 538.564C189.452 539.3 189.816 540.4 189.816 541.864V550H187.848V548.872C187.368 549.328 186.828 549.68 186.228 549.928C185.628 550.168 185.008 550.288 184.368 550.288ZM184.68 548.464C185.248 548.464 185.808 548.324 186.36 548.044C186.92 547.764 187.416 547.368 187.848 546.856V544.744C187.44 544.488 186.976 544.288 186.456 544.144C185.936 544 185.44 543.928 184.968 543.928C184.072 543.928 183.364 544.132 182.844 544.54C182.324 544.94 182.064 545.488 182.064 546.184C182.064 546.888 182.296 547.444 182.76 547.852C183.224 548.26 183.864 548.464 184.68 548.464ZM197.073 550.288C196.209 550.288 195.377 550.104 194.577 549.736C193.785 549.36 193.137 548.856 192.633 548.224L194.121 546.952C194.553 547.416 195.033 547.776 195.561 548.032C196.089 548.288 196.609 548.416 197.121 548.416C197.841 548.416 198.401 548.28 198.801 548.008C199.201 547.728 199.401 547.344 199.401 546.856C199.401 546.536 199.309 546.248 199.125 545.992C198.949 545.736 198.653 545.492 198.237 545.26C197.829 545.028 197.281 544.784 196.593 544.528C195.241 544.024 194.269 543.476 193.677 542.884C193.093 542.292 192.801 541.56 192.801 540.688C192.801 539.728 193.181 538.948 193.941 538.348C194.709 537.748 195.705 537.448 196.929 537.448C197.769 537.448 198.541 537.608 199.245 537.928C199.949 538.24 200.553 538.696 201.057 539.296L199.617 540.496C198.881 539.712 197.977 539.32 196.905 539.32C196.273 539.32 195.773 539.444 195.405 539.692C195.045 539.932 194.865 540.264 194.865 540.688C194.865 541.096 195.069 541.456 195.477 541.768C195.893 542.072 196.641 542.424 197.721 542.824C198.601 543.144 199.313 543.492 199.857 543.868C200.409 544.244 200.809 544.672 201.057 545.152C201.313 545.632 201.441 546.184 201.441 546.808C201.441 547.888 201.053 548.74 200.277 549.364C199.501 549.98 198.433 550.288 197.073 550.288ZM209.193 550.288C208.073 550.288 207.105 550.012 206.289 549.46C205.473 548.908 204.845 548.148 204.405 547.18C203.965 546.212 203.745 545.104 203.745 543.856C203.745 542.504 203.973 541.352 204.429 540.4C204.885 539.44 205.521 538.708 206.337 538.204C207.153 537.7 208.105 537.448 209.193 537.448C210.113 537.448 210.957 537.656 211.725 538.072C212.493 538.48 213.105 539.116 213.561 539.98C214.025 540.836 214.257 541.936 214.257 543.28C214.257 543.472 214.249 543.696 214.233 543.952C214.225 544.2 214.209 544.456 214.185 544.72H205.881C205.961 545.464 206.145 546.116 206.433 546.676C206.721 547.236 207.101 547.676 207.573 547.996C208.045 548.308 208.601 548.464 209.241 548.464C209.761 548.464 210.241 548.372 210.681 548.188C211.129 548.004 211.545 547.72 211.929 547.336L213.153 548.704C212.697 549.16 212.129 549.54 211.449 549.844C210.777 550.14 210.025 550.288 209.193 550.288ZM205.857 542.896H212.145C212.145 542.2 212.029 541.58 211.797 541.036C211.573 540.484 211.241 540.052 210.801 539.74C210.361 539.428 209.825 539.272 209.193 539.272C208.305 539.272 207.541 539.56 206.901 540.136C206.269 540.712 205.921 541.632 205.857 542.896ZM120.55 579.288C119.686 579.288 118.854 579.104 118.054 578.736C117.262 578.36 116.614 577.856 116.11 577.224L117.598 575.952C118.03 576.416 118.51 576.776 119.038 577.032C119.566 577.288 120.086 577.416 120.598 577.416C121.318 577.416 121.878 577.28 122.278 577.008C122.678 576.728 122.878 576.344 122.878 575.856C122.878 575.536 122.786 575.248 122.602 574.992C122.426 574.736 122.13 574.492 121.714 574.26C121.306 574.028 120.758 573.784 120.07 573.528C118.718 573.024 117.746 572.476 117.154 571.884C116.57 571.292 116.278 570.56 116.278 569.688C116.278 568.728 116.658 567.948 117.418 567.348C118.186 566.748 119.182 566.448 120.406 566.448C121.246 566.448 122.018 566.608 122.722 566.928C123.426 567.24 124.03 567.696 124.534 568.296L123.094 569.496C122.358 568.712 121.454 568.32 120.382 568.32C119.75 568.32 119.25 568.444 118.882 568.692C118.522 568.932 118.342 569.264 118.342 569.688C118.342 570.096 118.546 570.456 118.954 570.768C119.37 571.072 120.118 571.424 121.198 571.824C122.078 572.144 122.79 572.492 123.334 572.868C123.886 573.244 124.286 573.672 124.534 574.152C124.79 574.632 124.918 575.184 124.918 575.808C124.918 576.888 124.53 577.74 123.754 578.364C122.978 578.98 121.91 579.288 120.55 579.288ZM132.645 579.288C130.965 579.288 129.641 578.716 128.673 577.572C127.705 576.42 127.221 574.856 127.221 572.88C127.221 571.56 127.441 570.42 127.881 569.46C128.321 568.5 128.945 567.76 129.753 567.24C130.569 566.712 131.533 566.448 132.645 566.448C133.765 566.448 134.729 566.708 135.537 567.228C136.353 567.74 136.977 568.476 137.409 569.436C137.849 570.396 138.069 571.536 138.069 572.856C138.069 574.176 137.849 575.32 137.409 576.288C136.969 577.248 136.341 577.988 135.525 578.508C134.717 579.028 133.757 579.288 132.645 579.288ZM132.645 577.344C133.677 577.344 134.485 576.948 135.069 576.156C135.661 575.356 135.957 574.256 135.957 572.856C135.957 571.448 135.661 570.348 135.069 569.556C134.485 568.764 133.677 568.368 132.645 568.368C131.605 568.368 130.793 568.764 130.209 569.556C129.625 570.34 129.333 571.448 129.333 572.88C129.333 574.28 129.625 575.376 130.209 576.168C130.793 576.952 131.605 577.344 132.645 577.344ZM141.348 579V566.736H143.436V579H141.348ZM142.38 564.504C142.02 564.504 141.712 564.38 141.456 564.132C141.208 563.876 141.084 563.568 141.084 563.208C141.084 562.832 141.208 562.516 141.456 562.26C141.712 561.996 142.02 561.864 142.38 561.864C142.756 561.864 143.068 561.996 143.316 562.26C143.572 562.516 143.7 562.832 143.7 563.208C143.7 563.568 143.572 563.876 143.316 564.132C143.068 564.38 142.756 564.504 142.38 564.504ZM147.538 579V562.656L149.626 561.672V579H147.538ZM159.347 579V562.632L161.435 561.672V568.008C161.811 567.488 162.263 567.1 162.791 566.844C163.327 566.58 163.931 566.448 164.603 566.448C165.667 566.448 166.519 566.668 167.159 567.108C167.807 567.548 168.275 568.18 168.563 569.004C168.851 569.82 168.995 570.8 168.995 571.944V579H166.907V571.584C166.907 570.624 166.691 569.848 166.259 569.256C165.835 568.664 165.171 568.368 164.267 568.368C163.331 568.368 162.623 568.636 162.143 569.172C161.671 569.7 161.435 570.488 161.435 571.536V579H159.347ZM177.95 579.288C176.83 579.288 175.862 579.012 175.046 578.46C174.23 577.908 173.602 577.148 173.162 576.18C172.722 575.212 172.502 574.104 172.502 572.856C172.502 571.504 172.73 570.352 173.186 569.4C173.642 568.44 174.278 567.708 175.094 567.204C175.91 566.7 176.862 566.448 177.95 566.448C178.87 566.448 179.714 566.656 180.482 567.072C181.25 567.48 181.862 568.116 182.318 568.98C182.782 569.836 183.014 570.936 183.014 572.28C183.014 572.472 183.006 572.696 182.99 572.952C182.982 573.2 182.966 573.456 182.942 573.72H174.638C174.718 574.464 174.902 575.116 175.19 575.676C175.478 576.236 175.858 576.676 176.33 576.996C176.802 577.308 177.358 577.464 177.998 577.464C178.518 577.464 178.998 577.372 179.438 577.188C179.886 577.004 180.302 576.72 180.686 576.336L181.91 577.704C181.454 578.16 180.886 578.54 180.206 578.844C179.534 579.14 178.782 579.288 177.95 579.288ZM174.614 571.896H180.902C180.902 571.2 180.786 570.58 180.554 570.036C180.33 569.484 179.998 569.052 179.558 568.74C179.118 568.428 178.582 568.272 177.95 568.272C177.062 568.272 176.298 568.56 175.658 569.136C175.026 569.712 174.678 570.632 174.614 571.896ZM189.571 579.288C188.243 579.288 187.199 578.92 186.439 578.184C185.679 577.448 185.299 576.44 185.299 575.16C185.299 574.336 185.487 573.62 185.863 573.012C186.239 572.404 186.771 571.936 187.459 571.608C188.147 571.272 188.955 571.104 189.883 571.104C190.483 571.104 191.043 571.172 191.563 571.308C192.091 571.436 192.587 571.632 193.051 571.896V571.032C193.051 570.08 192.835 569.384 192.403 568.944C191.971 568.496 191.299 568.272 190.387 568.272C189.803 568.272 189.195 568.38 188.563 568.596C187.939 568.812 187.355 569.112 186.811 569.496L186.211 567.744C186.827 567.336 187.527 567.02 188.311 566.796C189.103 566.564 189.883 566.448 190.651 566.448C192.107 566.448 193.199 566.82 193.927 567.564C194.655 568.3 195.019 569.4 195.019 570.864V579H193.051V577.872C192.571 578.328 192.031 578.68 191.431 578.928C190.831 579.168 190.211 579.288 189.571 579.288ZM189.883 577.464C190.451 577.464 191.011 577.324 191.563 577.044C192.123 576.764 192.619 576.368 193.051 575.856V573.744C192.643 573.488 192.179 573.288 191.659 573.144C191.139 573 190.643 572.928 190.171 572.928C189.275 572.928 188.567 573.132 188.047 573.54C187.527 573.94 187.267 574.488 187.267 575.184C187.267 575.888 187.499 576.444 187.963 576.852C188.427 577.26 189.067 577.464 189.883 577.464ZM198.772 579V562.656L200.86 561.672V579H198.772ZM208.341 579.288C207.501 579.288 206.857 579.036 206.409 578.532C205.969 578.028 205.749 577.304 205.749 576.36V568.56H203.757V566.736H205.749V562.68L207.837 561.672V566.736H210.861V568.56H207.837V575.664C207.837 576.248 207.937 576.676 208.137 576.948C208.345 577.212 208.669 577.344 209.109 577.344C209.669 577.344 210.277 577.128 210.933 576.696L210.693 578.736C210.333 578.928 209.957 579.068 209.565 579.156C209.181 579.244 208.773 579.288 208.341 579.288ZM213.535 579V562.632L215.623 561.672V568.008C215.999 567.488 216.451 567.1 216.979 566.844C217.515 566.58 218.119 566.448 218.791 566.448C219.855 566.448 220.707 566.668 221.347 567.108C221.995 567.548 222.463 568.18 222.751 569.004C223.039 569.82 223.183 570.8 223.183 571.944V579H221.095V571.584C221.095 570.624 220.879 569.848 220.447 569.256C220.023 568.664 219.359 568.368 218.455 568.368C217.519 568.368 216.811 568.636 216.331 569.172C215.859 569.7 215.623 570.488 215.623 571.536V579H213.535Z" fill="white"/>
<path d="M239.474 122.67C238.877 120.815 237.043 119.299 235.336 118.287C231.985 116.516 227.587 115.84 223.942 117.11C223.786 117.018 223.539 117.086 223.292 117.154C223.045 117.222 222.889 117.13 222.797 117.29C222.148 117.334 221.653 117.47 220.911 117.673C219.675 118.013 218.657 118.696 217.639 119.38C213.97 122.138 212.634 127.351 216.703 130.406C219.312 132.381 222.934 132.598 225.936 132.446C229.339 132.319 233.174 131.804 236.136 129.913C238.758 128.251 240.479 125.624 239.474 122.67Z" fill="#541F17"/>
<path d="M230.477 124.11C230.229 124.178 230.229 124.178 230.477 124.11C230.229 124.178 230.385 124.27 230.477 124.11Z" fill="#541F17"/>
<path d="M184.701 155.806C184.847 155.555 185.14 155.054 185.286 154.803C185.579 154.302 185.597 153.64 185.193 153.068C185.064 152.657 184.935 152.245 184.66 152.085C184.256 151.513 183.853 150.94 183.156 150.87C182.606 150.548 182.331 150.388 181.78 150.066C180.808 149.835 179.837 149.603 178.718 149.622C177.179 149.731 175.639 149.84 174.503 150.521C172.946 151.292 171.792 152.635 171.335 154.049C171.464 154.461 171.317 154.711 171.446 155.123C171.428 155.785 171.832 156.357 172.236 156.929C172.915 157.662 173.869 158.555 174.841 158.787C175.813 159.018 176.785 159.25 177.903 159.231C178.6 159.301 179.443 159.122 180.011 158.781C180.854 158.601 181.422 158.261 181.715 157.759L181.861 157.509C182.282 157.419 182.704 157.329 182.997 156.828C183.84 156.648 184.408 156.307 184.701 155.806Z" fill="#241C17"/>
<path d="M508.433 134.88C508.322 133.807 507.66 132.412 506.706 131.519C506.302 130.947 505.477 130.464 504.927 130.143C504.101 129.661 503.404 129.59 502.579 129.108C501.057 128.555 499.389 128.253 497.702 128.612C496.859 128.792 496.016 128.972 495.027 129.402C494.037 129.833 493.176 130.675 492.737 131.427L492.591 131.677C492.023 132.018 491.73 132.519 491.437 133.02L491.291 133.271C491.144 133.522 490.998 133.772 490.852 134.023C491.291 133.271 491.291 133.271 490.705 134.274C490.412 134.775 490.541 135.186 490.523 135.848C490.634 136.921 491.167 137.905 492.121 138.798C494.984 141.479 499.732 141.563 502.829 140.683C505.78 140.054 509.17 138.672 508.433 134.88Z" fill="#241C17"/>
<path d="M458.701 113.44C458.847 113.189 459.14 112.688 459.286 112.437C459.579 111.936 459.597 111.274 459.193 110.702C459.064 110.291 458.935 109.879 458.66 109.718C458.256 109.146 457.853 108.574 457.156 108.503C456.606 108.182 456.331 108.021 455.78 107.7C454.808 107.468 453.837 107.237 452.718 107.256C451.179 107.365 449.639 107.474 448.503 108.155C446.946 108.926 445.792 110.269 445.335 111.683C445.464 112.094 445.317 112.345 445.446 112.756C445.428 113.418 445.832 113.991 446.236 114.563C446.915 115.295 447.869 116.189 448.841 116.42C449.813 116.652 450.785 116.883 451.903 116.864C452.6 116.935 453.443 116.755 454.011 116.415C454.854 116.235 455.422 115.894 455.715 115.393L455.861 115.142C456.282 115.053 456.704 114.963 456.997 114.461C457.84 114.282 458.408 113.941 458.701 113.44Z" fill="#241C17"/>
<path d="M557.361 160.979C556.407 160.086 555.16 159.693 554.06 159.051C552.058 155.528 546.174 156.125 543.867 158.811C542.274 160.906 541.782 163.644 541.986 166.453C541.33 170.103 542.892 174.378 545.608 177.309C546.949 179.436 548.711 181.474 550.765 183.01C553.774 185.44 559.676 184.181 561.561 181.585C566.34 175.3 563.654 166 557.361 160.979Z" fill="#241C17"/>
<path d="M624.521 365.832C626.454 360.394 625.084 354.221 621.598 350.394C621.08 348.3 620.116 346.543 618.261 345.46C613.383 342.312 605.588 346.713 604.008 353.252C602.501 359.237 605.003 365.176 608.044 369.339C609.564 371.421 611.585 373.498 614.331 373.908C618.765 374.408 623.109 370.379 624.521 365.832Z" fill="#541F17"/>
<path d="M125.701 454.44C125.847 454.189 126.14 453.688 126.286 453.437C126.579 452.936 126.597 452.274 126.193 451.702C126.064 451.291 125.935 450.879 125.66 450.718C125.256 450.146 124.853 449.574 124.156 449.503C123.606 449.182 123.331 449.021 122.78 448.7C121.808 448.468 120.837 448.237 119.718 448.256C118.179 448.365 116.639 448.474 115.503 449.155C113.946 449.926 112.792 451.269 112.335 452.683C112.464 453.094 112.317 453.345 112.446 453.756C112.428 454.418 112.832 454.991 113.236 455.563C113.915 456.295 114.869 457.189 115.841 457.42C116.813 457.652 117.785 457.883 118.903 457.864C119.6 457.935 120.443 457.755 121.011 457.415C121.854 457.235 122.422 456.894 122.715 456.393L122.861 456.142C123.282 456.053 123.704 455.963 123.997 455.461C124.84 455.282 125.408 454.941 125.701 454.44Z" fill="#241C17"/>
</svg>
