<svg width="74" height="86" viewBox="0 0 74 86" fill="none" xmlns="http://www.w3.org/2000/svg">
<g id="Frame 1000001895">
<path id="Vector" fill-rule="evenodd" clip-rule="evenodd" d="M69 27.7169V25.6674C69 23.618 67.3929 22 65.3571 22H9.64285C7.60714 22 6 23.618 6 25.6674V56.5169C6 58.5663 7.60714 60.1843 9.64285 60.1843H49.2857L65.3571 70V60.1843C67.3929 60.1843 69 58.5663 69 56.5169V53.8202V44.6517V27.7169ZM12.9643 49.5056H58.1786C59.25 49.5056 60.2143 50.3685 60.2143 51.5551C60.2143 52.6337 59.3571 53.6045 58.1786 53.6045H12.9643C11.8929 53.6045 10.9286 52.7416 10.9286 51.5551C11.0357 50.3685 11.8929 49.5056 12.9643 49.5056ZM12.9643 42.6022H46.9286C48 42.6022 48.9643 43.4652 48.9643 44.6517C48.9643 45.7303 48.1071 46.7011 46.9286 46.7011H12.9643C11.8929 46.7011 10.9286 45.8382 10.9286 44.6517C11.0357 43.4652 11.8929 42.6022 12.9643 42.6022ZM12.9643 35.591H38.5714C39.6429 35.591 40.6071 36.4539 40.6071 37.6404C40.6071 38.7191 39.75 39.6899 38.5714 39.6899H12.9643C11.8929 39.6899 10.9286 38.827 10.9286 37.6404C11.0357 36.5618 11.8929 35.591 12.9643 35.591ZM12.9643 28.6876H31.6071C32.6786 28.6876 33.6429 29.5506 33.6429 30.7371C33.6429 31.8157 32.7857 32.7865 31.6071 32.7865H12.9643C11.8929 32.7865 10.9286 31.9236 10.9286 30.7371C11.0357 29.6584 11.8929 28.6876 12.9643 28.6876Z" fill="#241C17"/>
</g>
</svg>
